<?xml version="1.0" encoding="UTF-8"?>
<svg id="Capa_1" data-name="Capa 1" xmlns="http://www.w3.org/2000/svg" viewBox="0 0 447.44 392.22">
  <g id="freepik--Floor--inject-56">
    <ellipse id="freepik--floor--inject-56" cx="223.72" cy="263.29" rx="223.72" ry="128.93" style="fill: #f5f5f5; stroke-width: 0px;"/>
  </g>
  <g id="freepik--Shadows--inject-56">
    <path id="freepik--Shadow--inject-56" d="M333.14,362.14l-73.42-42.51c-4.79-2.76-4.79-7.23,0-10l45.85-26.79c4.78-2.76,12.53-2.76,17.32,0l73.42,42.51c4.78,2.76,4.78,7.23,0,10l-45.85,26.79c-4.78,2.77-12.55,2.77-17.32,0Z" style="fill: #e0e0e0; stroke-width: 0px;"/>
    <path id="freepik--shadow--inject-56" d="M104.5,317.07l-73.42-42.51c-4.79-2.76-4.79-7.23,0-10l45.83-26.79c4.78-2.76,12.53-2.76,17.32,0l73.42,42.51c4.78,2.76,4.78,7.23,0,10l-45.85,26.79c-4.76,2.77-12.52,2.77-17.3,0Z" style="fill: #e0e0e0; stroke-width: 0px;"/>
    <polygon id="freepik--shadow--inject-56-2" data-name="freepik--shadow--inject-56" points="170.71 370.11 65.53 309.38 232.67 212.88 337.85 273.6 170.71 370.11" style="fill: #e0e0e0; stroke-width: 0px;"/>
    <path id="freepik--shadow--inject-56-3" data-name="freepik--shadow--inject-56" d="M306.91,174.8l-40.8,23.56c-.63.32-1.37.32-2,0l-55.07-31.79c-.32-.11-.48-.46-.37-.78.06-.17.2-.31.37-.37l40.87-23.56c.63-.32,1.37-.32,2,0l55,31.8c.57.31.57.82,0,1.14Z" style="fill: #000; isolation: isolate; opacity: .1; stroke-width: 0px;"/>
  </g>
  <g id="freepik--character-1--inject-56">
    <g id="freepik--Character--inject-56">
      <g id="freepik--character--inject-56">
        <g id="freepik--Chair--inject-56">
          <path d="M161.08,283.99l-8.87-74.09-7.26-.37,12.48,74.45h0c.06.27.24.51.48.65.8.45,1.75.49,2.59.13.32-.13.54-.43.57-.77h0Z" style="fill: #263238; stroke-width: 0px;"/>
          <path d="M152.21,209.9l-7.26-.37,2.14,14.05c1.48-.55,2.92-1.21,4.29-2,.79-.35,1.45-.92,1.92-1.64l-1.09-10.04Z" style="fill: #263238; stroke-width: 0px;"/>
          <path d="M55.8,199.04h-7.26l-10.57,69.95h0c0,.35.2.66.52.8.81.42,1.78.42,2.59,0,.25-.12.44-.35.52-.62h0l14.2-70.13Z" style="fill: #37474f; stroke-width: 0px;"/>
          <path d="M48.54,199.04l-2.95,19.52c1.72,1.35,3.59,2.49,5.57,3.41l4.64-22.93h-7.26Z" style="fill: #263238; stroke-width: 0px;"/>
          <path d="M112.55,308.82l-6.83-75.34-7.25-.37,10.44,75.7h0c.06.28.24.51.49.65.79.46,1.75.5,2.58.13.33-.12.55-.42.57-.77h0Z" style="fill: #37474f; stroke-width: 0px;"/>
          <path d="M106.61,244.33l-.89-10.85-7.25-.37,1.47,11.7c2.23.41,4.52.24,6.67-.48Z" style="fill: #263238; stroke-width: 0px;"/>
          <path d="M95.45,175.99h-7.27l-10.57,69.95h0c0,.35.21.66.53.8.81.41,1.78.41,2.59,0,.25-.13.43-.35.51-.62h0l14.21-70.13Z" style="fill: #263238; stroke-width: 0px;"/>
          <g id="freepik--chair--inject-56">
            <path d="M35.03,114.32c-1.64,4.07-2.62,8.37-2.9,12.75-.83,9.78,2.34,45.92,4.33,60.07h0c2.87,23.65,6.4,23.69,11.53,27.65,8.81,6.81,34.17,20.16,42.54,23.46,15.17,6,27.58-3.24,36.83-7.81,8.48-4.29,16.66-9.13,24.5-14.51,2.31-1.68,3.51-3.38,3.48-5.17v-4.37c0-2.28-2-4.73-6.26-7.48-7.84-5.09-36.16-21.61-47.14-27.69-.01-.04-.05-.08-.09-.09-8.45-5.13-13.39-44.46-19.24-63-.12-.4-.25-.78-.38-1.15s-.2-.59-.3-.87c-.37-1-.75-1.93-1.15-2.77" style="fill: #0a4bdd; stroke-width: 0px;"/>
            <path d="M155.34,206.39c0-2.28-2-4.73-6.26-7.48-7.84-5.09-36.16-21.61-47.14-27.69-.01-.04-.05-.08-.09-.09-8.45-5.13-13.39-44.46-19.24-63-.35-1.16-.75-2.3-1.22-3.41,0-.09-.07-.17-.11-.25l-.33-.76c-.06-.12-.11-.25-.17-.37h0c-.92-2.12-2.25-4.03-3.9-5.64-.58-.53-1.22-.99-1.92-1.35l-3.44-1.93c-5.74-3.44-13.26.68-22.64,5.82-5.83,3.2-10.81,7-13.84,14.08h0c-1.64,4.07-2.62,8.37-2.9,12.75-.83,9.78,2.34,45.92,4.33,60.07h0c2.87,23.65,6.4,23.69,11.53,27.65,8.81,6.81,34.17,20.16,42.54,23.46,15.17,6,27.58-3.24,36.83-7.81,8.48-4.29,16.66-9.13,24.5-14.51,2.31-1.68,3.51-3.38,3.48-5.17-.02-.71-.01-3.62-.01-4.37Z" style="fill: #0a4bdd; stroke-width: 0px;"/>
            <path d="M155.34,206.39c0-2.28-2-4.73-6.26-7.48-7.84-5.09-36.16-21.61-47.14-27.69-.01-.04-.05-.08-.09-.09-8.45-5.13-13.39-44.46-19.24-63-.35-1.16-.75-2.3-1.22-3.41,0-.09-.07-.17-.11-.25l-.33-.76c-.06-.12-.11-.25-.17-.37h0c-.92-2.12-2.25-4.03-3.9-5.64-.58-.53-1.22-.99-1.92-1.35l-3.44-1.93c-5.74-3.44-13.26.68-22.64,5.82-5.83,3.2-10.81,7-13.84,14.08h0c-1.64,4.07-2.62,8.37-2.9,12.75-.83,9.78,2.34,45.92,4.33,60.07h0c2.87,23.65,6.4,23.69,11.53,27.65,8.81,6.81,34.17,20.16,42.54,23.46,15.17,6,27.58-3.24,36.83-7.81,8.48-4.29,16.66-9.13,24.5-14.51,2.31-1.68,3.51-3.38,3.48-5.17-.02-.71-.01-3.62-.01-4.37Z" style="fill: #fff; isolation: isolate; opacity: .25; stroke-width: 0px;"/>
            <path d="M127.35,226.05c8.48-4.29,16.66-9.14,24.5-14.52,5.26-3.82,4.78-7.73-2.76-12.62-10.48-6.79-53.18-31-53.18-31,0,0-54,31.85-51.65,37.74s35.73,24.08,46.26,28.22c15.18,5.95,27.58-3.26,36.83-7.82Z" style="fill: #0a4bdd; stroke-width: 0px;"/>
            <path d="M127.35,226.05c8.48-4.29,16.66-9.14,24.5-14.52,5.26-3.82,4.78-7.73-2.76-12.62-10.48-6.79-53.18-31-53.18-31,0,0-54,31.85-51.65,37.74s35.73,24.08,46.26,28.22c15.18,5.95,27.58-3.26,36.83-7.82Z" style="fill: #fff; isolation: isolate; opacity: .6; stroke-width: 0px;"/>
            <path d="M74.91,96.35c-5.68-3-13.06,1.08-22.2,6.08-5.8,3.21-10.8,7.05-13.8,14.12l-3.86-2.23c3-7.08,8-10.88,13.84-14.08,9.38-5.14,16.9-9.26,22.64-5.82l3.38,1.93Z" style="fill: #0a4bdd; stroke-width: 0px;"/>
            <path d="M74.91,96.35c-5.68-3-13.06,1.08-22.2,6.08-5.8,3.21-10.8,7.05-13.8,14.12l-3.86-2.23c3-7.08,8-10.88,13.84-14.08,9.38-5.14,16.9-9.26,22.64-5.82l3.38,1.93Z" style="fill: #fff; isolation: isolate; opacity: .5; stroke-width: 0px;"/>
            <path d="M82.61,108.13c-.12-.4-2.08-7.2-5.74-10.43-1.7-1.53-3.92-2.38-6.21-2.37-5,0-10.92,3.28-17.91,7.1-.58.32-1.15.65-1.72,1l-.65.38c-.26.16-.52.32-.77.49s-.38.24-.57.37c-1.23.81-2.41,1.7-3.52,2.67-.18.16-.35.31-.52.48-.71.65-1.38,1.34-2,2.07-.11.14-.23.27-.34.4l-.39.49c-.13.17-.25.34-.39.51l-.37.52c-.5.72-.97,1.46-1.39,2.23-.06.1-.12.2-.17.3l-.33.63-.45.94c-1.81,4.24-2.88,8.77-3.16,13.37-1.36,16.06,4,73.62,9.53,78.19,0,0-.85-5.19,10.26-12.18,7.55-4.75,12.85-8.74,20.91-12.7,19.63-9.64,25.14-11.45,25.14-11.45-8.45-5.14-13.39-44.47-19.24-63.01Z" style="fill: #0a4bdd; stroke-width: 0px;"/>
            <path d="M82.61,108.13c-.12-.4-2.08-7.2-5.74-10.43-1.7-1.53-3.92-2.38-6.21-2.37-5,0-10.92,3.28-17.91,7.1-.58.32-1.15.65-1.72,1l-.65.38c-.26.16-.52.32-.77.49s-.38.24-.57.37c-1.23.81-2.41,1.7-3.52,2.67-.18.16-.35.31-.52.48-.71.65-1.38,1.34-2,2.07-.11.14-.23.27-.34.4l-.39.49c-.13.17-.25.34-.39.51l-.37.52c-.5.72-.97,1.46-1.39,2.23-.06.1-.12.2-.17.3l-.33.63-.45.94c-1.81,4.24-2.88,8.77-3.16,13.37-1.36,16.06,4,73.62,9.53,78.19,0,0-.85-5.19,10.26-12.18,7.55-4.75,12.85-8.74,20.91-12.7,19.63-9.64,25.14-11.45,25.14-11.45-8.45-5.14-13.39-44.47-19.24-63.01Z" style="fill: #fff; isolation: isolate; opacity: .4; stroke-width: 0px;"/>
          </g>
        </g>
        <path id="freepik--shadow--inject-56-4" data-name="freepik--shadow--inject-56" d="M155.33,210.76c0,1.78-1.17,3.49-3.48,5.17-7.83,5.39-16.02,10.25-24.5,14.55-4.81,2.38-10.47,6-16.93,8.1-15.51-9.1-42.25-25-48.83-30.27-3.52-2.81-5.64-7.52-6.9-12.31-1.31-5.33-1.93-10.8-1.86-16.28-3.7-1.23-7.01-3.42-9.58-6.35-3.88-4.28-4.91-18.19-6.46-49.82h0c.49-2.63,1.29-5.19,2.38-7.64l.45-.94c.11-.21.22-.42.34-.63.05-.1.1-.2.16-.3.42-.77.89-1.51,1.39-2.23l.37-.52c.14-.18.25-.35.39-.51l.39-.49c.11-.13.22-.27.34-.39.63-.73,1.29-1.43,2-2.08.17-.17.35-.32.52-.48,1.11-.97,2.29-1.86,3.52-2.67.18-.14.37-.26.57-.37.25-.17.5-.33.77-.48.21-.14.43-.27.65-.39.56-.33,1.14-.67,1.72-1,7-3.81,12.94-7.09,17.91-7.09,2.11,0,4.17.7,5.83,2,.13.1.26.21.37.33,1.29,1.21,2.36,2.62,3.17,4.19.12.23.25.46.36.69.03.05.06.1.08.15.11.2.2.4.3.61l.11.23.06.14c.06.12.12.26.17.38.21.45.39.89.54,1.29l.12.28c.12.32.23.62.32.89l.09.25c.03.08.06.17.08.25.03.06.05.13.07.2,0,.07,0,.13.07.2s.06.17.08.24,0,.12,0,.16l.09.27c5.85,18.55,10.79,57.89,19.24,63,.04.01.08.05.09.09,11,6.08,39.3,22.6,47.14,27.68,4.25,2.76,6.25,5.21,6.26,7.5.04.78.02,3.69.03,4.4Z" style="fill: #000; isolation: isolate; opacity: .1; stroke-width: 0px;"/>
        <g id="freepik--character--inject-56-2" data-name="freepik--character--inject-56">
          <path d="M191.74,93.2c-2.21.78-11.46,5.34-16.06,5.13-2-.08-2.43-.47-2.27-1,.21-.66,1.58-1.51,2-2,.66-.88,4.34-4.42,3.49-6.69s-2.19-.43-5.45,1.88c-1.92,1.36-4.07,2.32-6.11,3.49-1.11.64-5.09,2-7.34,6.67s-2.88,7.73-4.58,10.25c-2.83,4.46-7.28,10.39-12.41,17.52,0,0-17.92-22.6-21.33-26.82s-10.18-10.91-16.82-12.49l9.05,32.64s9.74,13.62,20,25c8.25,9.2,13.64,10.06,18.86,2.27.53-.75,1.01-1.53,1.46-2.34,5.15-9.16,7.28-15.65,12.53-27.07.72-1.7,1.6-3.32,2.65-4.83,3.15-2.84,9.09-3.34,12.07-4.52,4.4-1.75,6.7-3.68,8.74-6.57,1.92-2.71,1.31-5.39,2.45-7s1.29-4.3-.93-3.52Z" style="fill: #ffa8a7; stroke-width: 0px;"/>
          <path d="M101.85,88.14c9,0,12.78,4.11,18.32,10.73,3.44,4.11,22.84,28.37,22.84,28.37l4.59-5.35s-.25,7.21,2.77,11.16,8.3,5,8.3,5c0,0-3.49,8.9-6.83,13.68s-8.09,5.4-14.36-.11-26.1-25.14-26.1-25.14l-9.53-38.34Z" style="fill: #0a4bdd; stroke-width: 0px;"/>
          <path d="M101.85,88.14c9,0,12.78,4.11,18.32,10.73,3.44,4.11,22.84,28.37,22.84,28.37l4.59-5.35s-.25,7.21,2.77,11.16,8.3,5,8.3,5c0,0-3.49,8.9-6.83,13.68s-8.09,5.4-14.36-.11-26.1-25.14-26.1-25.14l-9.53-38.34Z" style="fill: #000; isolation: isolate; opacity: .35; stroke-width: 0px;"/>
          <path d="M143.01,127.24c-4.22,5.08-5.88,12.82-5.7,15.62,0,0-1.79-7.6,4-17.72l1.7,2.1Z" style="fill: #000; isolation: isolate; opacity: .2; stroke-width: 0px;"/>
          <path d="M149.21,119.54l-3.62,4.7s.4,6.48,4.26,10.35c2.27,2.3,5.13,3.93,8.27,4.69l2.24-4.86s-9.39-5.48-11.15-14.88Z" style="fill: #37474f; stroke-width: 0px;"/>
          <path d="M176.09,104.48c-4-3.34-9.44-1.61-11.85,1.24,1.21-2.38,3.55-3.97,6.21-4.21,2.12-.24,4.42,1.23,5.64,3v-.03Z" style="fill: #f28f8f; stroke-width: 0px;"/>
          <path d="M121.91,303.22c-.14.81-.07,1.65.2,2.43.46,1.11,3.56,3.16,5.16,4,1.83,1.03,3.3,2.6,4.21,4.49,1.9,3.35,4.78,6.94,8.42,8.67,4.89,2.18,10.32,2.82,15.58,1.84,6.55-1.09,7.13-4.93,7.13-4.93,0,0,.4-3.61-1.22-4.21s-39.48-12.29-39.48-12.29Z" style="fill: #263238; stroke-width: 0px;"/>
          <path d="M121.06,298.75c-.05,1.53.23,3.06.83,4.47,1.88,2.69,6.42,3.63,9,7.31s5.62,9.33,14.14,11.14,15.06-.81,16.67-3.22.21-4.72-5.23-7.76c-5.79-3.21-12.56-11.7-12.56-11.71-2.24-2.9-3.18-6.72-4.42-10.13-.12-.33-.31-.71-.66-.73s-.62.51-.85.87c-.41.52-.99.87-1.64,1-.74.26-1.49.47-2.26.64-1.53.34-3.09.52-4.66.51-.52-.08-1.05.06-1.47.38-.27.38-.37.85-.29,1.3.03.58.11,1.15.22,1.72.06.28.06.56,0,.84-.15.41-.56.68-1,.65-.42-.02-.82-.15-1.17-.38-1.41-.69-2.43-1.99-2.77-3.52,0,0-.05-.87-.14-1.66-.5.26-.88.7-1.06,1.23-.16.65-.11,1.36-.21,2-.28,1.67-.44,3.36-.47,5.05Z" style="fill: #455a64; stroke-width: 0px;"/>
          <path d="M163.18,290.38c-.05.83.11,1.65.46,2.4.58,1.05,3.89,2.75,5.56,3.39s3,1.73,4.67,4c2.25,3.12,5.5,6.39,9.3,7.72,5.1,1.64,10.57,1.68,15.7.14,6.39-1.79,6.55-5.67,6.55-5.67,0,0,0-3.64-1.67-4.05s-40.57-7.93-40.57-7.93Z" style="fill: #263238; stroke-width: 0px;"/>
          <path d="M161.91,286.02c.11,1.53.55,3.02,1.3,4.36,2.17,2.47,6.77,2.91,9.73,6.29s6.59,8.67,15.26,9.56,14.88-2.43,16.23-5-.31-4.72-6.05-7.15c-6.08-2.58-13.75-10.28-13.76-10.29-2.53-2.65-3.88-6.34-5.48-9.59-.15-.32-.39-.68-.74-.66s-.56.57-.74.95c-.35.57-.89.99-1.53,1.19-.71.33-1.44.63-2.18.88-1.48.51-3.02.84-4.58,1-.52-.02-1.03.17-1.41.53-.23.4-.29.88-.16,1.33.1.57.24,1.14.41,1.69.11.26.15.55.12.83-.12.41-.48.71-.9.75-.42.03-.84-.06-1.21-.25-1.44-.57-2.54-1.75-3-3.23-.11-.54-.26-1.08-.43-1.61-.47.31-.8.79-.92,1.34-.09.67,0,1.36,0,2-.11,1.69-.1,3.39.04,5.08Z" style="fill: #455a64; stroke-width: 0px;"/>
          <path d="M57.64,170.12l20-2.17,40.67,2.19s24.42,15.63,42.15,28.09c5.15,3.63,10.61,7.59,11.52,15.19,1.28,10.77,8.35,63.46,8.35,63.46-2.5,6.43-15.44,7.5-18.6,5.63-1.82-7.39-2.3-8.88-5.57-19-2.39-7.4-4.09-13.82-6.07-19.87-1.98-6.68-3.19-13.57-3.59-20.53l-25.86-16.21c5.7,5.8,7.56,7.68,10.55,10.69,2.62,2.65,4.35,6,5.12,14.55,1.53,17,4.19,55.21,4.38,60.4-2.14,3-12.6,6.67-19.46,3.22-1.86-9.78-4-17.16-6.77-30.66-3.07-14.89-3.73-24.75-3.33-30.12,0,0-12.58-7.75-26.92-17.18-6.1-4-14.75-8.26-19-12.9-7.13-7.97-7.85-20.23-7.57-34.78Z" style="fill: #37474f; stroke-width: 0px;"/>
          <path d="M120.68,206.89l-14.6-16.58s7.8-2.62,11.87-12.74c0,0-.91,9.59-6.65,13.8l6.83,9.27,28.41,22.46-25.86-16.21Z" style="fill: #263238; stroke-width: 0px;"/>
          <g id="freepik--Top--inject-56">
            <path d="M57.61,177s-.86,5.07.48,7.3c6.06,3.1,15.5,4.36,33.44,1.83,22-3.09,26.61-13.77,27.2-14.84s.08-3.67-.54-6.31l-60.58,12.02Z" style="fill: #0a4bdd; stroke-width: 0px;"/>
            <g style="opacity: .35;">
              <path d="M57.61,177s-.86,5.07.48,7.3c6.06,3.1,15.5,4.36,33.44,1.83,22-3.09,26.61-13.77,27.2-14.84s.08-3.67-.54-6.31l-60.58,12.02Z" style="fill: #000; stroke-width: 0px;"/>
            </g>
            <path d="M115.56,109.4c-2.68-15.89-8.9-21.41-17.58-21.86l-19.51-.59c-4.12,1.24-17.25,3.87-22.85,5.77s-5,15.58-3.33,23.94,2.22,15,2.33,28.81c.26,13.41-.45,28.11,3,31.53,12.38,7.24,48.47,4.64,60.58-12,2.82-5.21.09-13.22-.4-21.47-.89-14.77-1.36-28.86-2.24-34.13Z" style="fill: #0a4bdd; stroke-width: 0px;"/>
            <path d="M115.56,109.4c-2.68-15.89-8.9-21.41-17.58-21.86l-19.51-.59c-4.12,1.24-17.25,3.87-22.85,5.77s-5,15.58-3.33,23.94,2.22,15,2.33,28.81c.26,13.41-.45,28.11,3,31.53,12.38,7.24,48.47,4.64,60.58-12,2.82-5.21.09-13.22-.4-21.47-.89-14.77-1.36-28.86-2.24-34.13Z" style="fill: #000; isolation: isolate; opacity: .2; stroke-width: 0px;"/>
            <path d="M70.59,88.89c2.75-.79,6.5-1.53,7.88-1.94l13,.4h0c3.79,2.09,8.93,7.21,3.1,10.34s-15.68.71-19.65-3c-1.89-1.56-3.37-3.55-4.33-5.8Z" style="fill: #37474f; stroke-width: 0px;"/>
            <path d="M109.14,39.42c-.04-3.1-2.1-5.8-5.08-6.65-2.27-.45-4.61-.51-6.9-.18-4.3.38-8.59-.55-12.87-1.08-2.86-.44-5.78-.44-8.64,0-2.54.4-4.94,1.41-7,2.94-2.79,2.3-3.66,4.34-3.73,8.44-2.65,1.6-3.25,4.77-3.33,8.33-.09,4.41,2.17,8.45,4,12.34,0,0,4.57,9.88,5.64,11.81,1.25,2.25,2.35,4.14,2.35,4.14l-.75-8.32c3-.38,5.48.46,8.32-.71,2.67-1.13,5.24-2.46,7.7-4,2.57-1.6,5.05-3.35,7.41-5.24,1.18-.94,2.33-1.93,3.49-2.9.74-.81,1.55-1.55,2.42-2.22.71-.34,1.44-.62,2.2-.83,1.75-.53,3.28-1.61,4.36-3.08.72-1.14,1.07-2.48,1-3.83-.12-1.74-1.06-3.74-2.69-4.36,1-.36,2.16-2.99,2.1-4.6Z" style="fill: #263238; stroke-width: 0px;"/>
            <path d="M79.28,44.13c.09,2.6-2.23,7.29-5.8,10.63.67,2.87.85,5.84.53,8.77-.08.63-.28,1.24-.6,1.79-.33.54-.88.91-1.5,1-.85.1-1.22-.41-1.5-1.06-.41-.84-.87-1.65-1.38-2.42-.22-.34-.49-.65-.79-.92-1.33-1.15-5.2-2.46-6.82,1.66-1.68,4.28,1.9,9.72,5,10.47,5.36,1.28,6.38-2.37,6.38-2.37l.54,17.53c1.65,4.39,10,8.4,16.63,7.31s4.34-5,1.55-7.64l.12-6.1c2.35.15,4.7-.03,7-.52,2.73-.63,4.9-3.29,5.89-7.52,1.88-8.06,1.1-19.38-.1-24.35s-4-8.11-5.49-8.79c.09,1.07-.7,3.69-6,4.63-5.6,1.02-9.53-.57-13.66-2.1Z" style="fill: #ffa8a7; stroke-width: 0px;"/>
            <path d="M80.16,60.16s0-.09,0-.13c0,0,.07-.06.1-.1s.29-.09.39-.1h.95c.41.03.81.09,1.21.19.19.05.14.47,0,.43-.42-.1-.85-.14-1.28-.11-.21,0-.42,0-.63.05h-.32c-.11,0-.25.08-.35,0-.06-.06-.09-.15-.07-.23Z" style="fill: #f28f8f; stroke-width: 0px;"/>
            <path d="M81.91,61.31c.17-.05.34-.07.52-.06h.19c.08.04.16.1.23.16.08.05.08.28,0,.31l-.47.14c-.13,0-.27.05-.4.09h-.11s-.1,0,0,0c-.08.02-.15.05-.22.1l-.15.08c-.09.03-.2.03-.29,0-.09-.03-.16-.11-.16-.21-.14-.31.5-.54.86-.61Z" style="fill: #f28f8f; stroke-width: 0px;"/>
            <path d="M81.85,63.37c.3-.36.69-.62,1.13-.76.04-.02.08-.02.12,0,.01.04.01.09,0,.13,0,.09,0,.24-.12.28-.09.04-.18.08-.27.13l-.14.07h-.06c-.08.06-.16.12-.23.19l-.23.21c-.04.06-.13.08-.19.04-.01,0-.03-.02-.04-.04-.02-.08-.01-.17.03-.25Z" style="fill: #f28f8f; stroke-width: 0px;"/>
            <path d="M103.39,58.48l.13-.1.17-.09.33-.17c.18-.09.37-.16.56-.2.14,0,.23.08.24.21.01.15-.07.3-.2.38-.2.11-.42.18-.64.22l-.31.05h-.25c-.07,0-.1-.08-.11-.13s0-.17.08-.17Z" style="fill: #f28f8f; stroke-width: 0px;"/>
            <path d="M103.59,60.06s-.01.09,0,.13c.03.04.08.07.13.06h.31-.07l.13.05h.07c.14.05.3-.01.36-.15.04-.06.07-.13.08-.21.01-.08-.01-.15-.06-.21-.06-.07-.13-.13-.22-.16-.08-.01-.16-.01-.24,0-.15,0-.29.06-.42.14-.05.03-.09.08-.12.13,0,.08.02.15.05.22Z" style="fill: #f28f8f; stroke-width: 0px;"/>
            <path d="M86.49,70.21c.15-.5.52-.9,1-1.09.23-.05.46-.04.68.05.08,0,.17.05.17.13s-.1.14-.19.16c-.3,0-.59.1-.84.27-.09.11-.17.23-.23.36-.07.11-.33.51-.5.39-.09-.06-.12-.17-.09-.27Z" style="fill: #f28f8f; stroke-width: 0px;"/>
            <path d="M91.64,82.81c-4.91-.27-8.91-.8-11.71-2.15-2.06-1-3.93-4.25-4.5-5.41,0,0,.3,4.54,3.1,7,4,3.43,13.06,3.09,13.06,3.09l.05-2.53Z" style="fill: #f28f8f; stroke-width: 0px;"/>
            <path d="M89.04,60.08c.19,1-1.06-.38-2-.2s-1.76,2-2,1c-.09-1.06.66-2,1.71-2.15,1-.24,2.02.36,2.29,1.35Z" style="fill: #263238; stroke-width: 0px;"/>
            <path d="M101.61,58.42c.19,1-1.06-.39-2-.2s-1.76,2-2,1c-.07-1.05.67-1.98,1.71-2.15,1-.25,2.02.35,2.29,1.35Z" style="fill: #263238; stroke-width: 0px;"/>
            <path d="M86.61,54.85l-4.22,1.94c-.51-1.2,0-2.59,1.18-3.16,1.14-.52,2.48-.02,3,1.12.02.03.03.07.04.1Z" style="fill: #455a64; stroke-width: 0px;"/>
            <path d="M88.15,70.94l5.74,2.12c-.5,1.58-2.18,2.46-3.76,1.96-.04-.01-.08-.03-.12-.04-1.6-.63-2.42-2.41-1.86-4.04Z" style="fill: #b16668; stroke-width: 0px;"/>
            <path d="M102.29,54.99l-4.3-1.49c.38-1.15,1.63-1.78,2.78-1.4.02,0,.03.01.05.02,1.19.4,1.84,1.67,1.47,2.87Z" style="fill: #455a64; stroke-width: 0px;"/>
            <polygon points="93.77 67.64 99.37 65.13 92.08 55.16 93.77 67.64" style="fill: #f28f8f; stroke-width: 0px;"/>
          </g>
          <path d="M91.55,75.1c-.07-1.48-1.32-2.63-2.8-2.57-.23.01-.47.06-.69.13.21,1.06.94,1.93,1.95,2.32.49.18,1.03.22,1.54.12Z" style="fill: #f28f8f; stroke-width: 0px;"/>
          <path d="M89.97,96.55c-.75-2.58-1.64-4-4.87-4.46-3.93-.59-9.71-4.39-11.91-7.66l.15,4.81s.77,3.63,7.13,6.43c2.99,1.3,6.32,1.61,9.5.88Z" style="fill: #e0e0e0; stroke-width: 0px;"/>
          <path d="M89.97,96.55c.79-3.79,1.47-3.83,2.18-5s-.63-2.62-.63-2.62l.06-3.17s2.41,2.32,2.54,4.11,2.62,5.67-4.15,6.68Z" style="fill: #e0e0e0; stroke-width: 0px;"/>
          <path d="M88.17,93.26c-2.56-1.08-6,7.43-6,7.43,0,0-7.19-2-10.25-4.75-4.39-4-4.67-6.28-4.67-6.28,0,0,4.6-7.72,5.79-8l.08,2.29c1.33,2.25,3.27,4.06,5.6,5.24,4.26,2.43,8.41,2.77,9.45,4.07Z" style="fill: #fafafa; stroke-width: 0px;"/>
          <path d="M91.04,93.15c.63-.93,2.1-.9,3.2.67.66.95,2.9,5,2.9,5,.58-2.77.39-5.64-.56-8.3-1.58-4.35-3.29-6.66-5-6.76l-.1,5.16c.29.72.32,1.52.09,2.26-.22.65-.39,1.3-.53,1.97Z" style="fill: #fafafa; stroke-width: 0px;"/>
          <g id="freepik--Arm--inject-56">
            <path d="M57.1,92.25c3.11.62,8.46,12.41,8.24,24.49l1,38,21.71,9.27c-3.94,2.29-7,10.8-7.25,16.8-3-.33-19.24-3.09-29.7-7.77-4.85-2.17-7.46-3.85-8.21-17.48-.84-15.08-2.54-31.69-1.65-43.14.97-12,4.23-16.89,15.86-20.17Z" style="fill: #0a4bdd; stroke-width: 0px;"/>
            <path d="M57.1,92.25c3.11.62,8.46,12.41,8.24,24.49l1,38,21.71,9.27c-3.94,2.29-7,10.8-7.25,16.8-3-.33-19.24-3.09-29.7-7.77-4.85-2.17-7.46-3.85-8.21-17.48-.84-15.08-2.54-31.69-1.65-43.14.97-12,4.23-16.89,15.86-20.17Z" style="fill: #000; isolation: isolate; opacity: .35; stroke-width: 0px;"/>
            <path d="M66.38,154.69c-4.58-.88-9.74,1.23-12.66,4,1.36-2.53,3.62-4.45,6.33-5.4,4.58-1.61,6.27-.88,6.27-.88l.06,2.28Z" style="fill: #000; isolation: isolate; opacity: .2; stroke-width: 0px;"/>
            <path d="M86.91,163.54s3.64,1.22,6.35,2.42c-2.53,1.13-4.73,2.92-6.35,5.17-2.78,3.82-2.69,10.32-2.69,10.32l-5.86-1c-.62-3.75-.03-7.61,1.69-11,2.86-5.35,6.86-5.91,6.86-5.91Z" style="fill: #37474f; stroke-width: 0px;"/>
          </g>
        </g>
      </g>
      <polygon points="172.29 264.74 172.29 361.38 169.44 359.73 169.44 263.09 172.29 264.74" style="fill: #0a4bdd; stroke-width: 0px;"/>
      <polygon points="172.29 264.74 172.29 361.38 169.44 359.73 169.44 263.09 172.29 264.74" style="fill: #000; isolation: isolate; opacity: .4; stroke-width: 0px;"/>
      <polygon points="172.29 264.74 172.29 361.38 175.15 359.73 175.15 263.09 172.29 264.74" style="fill: #0a4bdd; stroke-width: 0px;"/>
      <polygon points="172.29 264.74 172.29 361.38 175.15 359.73 175.15 263.09 172.29 264.74" style="fill: #000; isolation: isolate; opacity: .25; stroke-width: 0px;"/>
      <polygon points="84.17 213.86 84.17 310.5 81.31 308.85 81.31 212.21 84.17 213.86" style="fill: #0a4bdd; stroke-width: 0px;"/>
      <polygon points="84.17 213.86 84.17 310.5 81.31 308.85 81.31 212.21 84.17 213.86" style="fill: #000; isolation: isolate; opacity: .4; stroke-width: 0px;"/>
      <polygon points="84.17 213.86 84.17 310.5 87.03 308.85 87.03 212.21 84.17 213.86" style="fill: #0a4bdd; stroke-width: 0px;"/>
      <polygon points="84.17 213.86 84.17 310.5 87.03 308.85 87.03 212.21 84.17 213.86" style="fill: #000; isolation: isolate; opacity: .25; stroke-width: 0px;"/>
      <polygon points="319.21 179.92 319.21 276.56 316.35 274.91 316.35 178.27 319.21 179.92" style="fill: #0a4bdd; stroke-width: 0px;"/>
      <polygon points="319.21 179.92 319.21 276.56 322.06 274.91 322.06 178.27 319.21 179.92" style="fill: #0a4bdd; stroke-width: 0px;"/>
      <polygon points="172.29 249.48 172.29 269.82 81.32 217.3 81.31 196.95 172.29 249.48" style="fill: #0a4bdd; stroke-width: 0px;"/>
      <polygon points="172.29 249.48 172.29 269.82 81.32 217.3 81.31 196.95 172.29 249.48" style="fill: #000; isolation: isolate; opacity: .4; stroke-width: 0px;"/>
      <polygon points="172.29 269.82 322.06 183.35 322.07 173.18 172.29 259.65 172.29 269.82" style="fill: #0a4bdd; stroke-width: 0px;"/>
      <polygon points="172.29 269.82 322.06 183.35 322.07 173.18 172.29 259.65 172.29 269.82" style="fill: #000; isolation: isolate; opacity: .25; stroke-width: 0px;"/>
      <g id="freepik--Desk--inject-56">
        <polygon points="172.29 259.65 72.5 202.04 231.09 110.48 330.87 168.09 172.29 259.65" style="fill: #0a4bdd; stroke-width: 0px;"/>
        <polygon points="172.29 259.65 72.5 202.04 231.09 110.48 330.87 168.09 172.29 259.65" style="fill: #fff; isolation: isolate; opacity: .6; stroke-width: 0px;"/>
        <polygon points="72.5 202.04 72.5 207.12 172.29 264.74 172.29 259.65 72.5 202.04" style="fill: #0a4bdd; stroke-width: 0px;"/>
        <polygon points="72.5 202.04 72.5 207.12 172.29 264.74 172.29 259.65 72.5 202.04" style="fill: #fff; isolation: isolate; opacity: .25; stroke-width: 0px;"/>
        <polygon points="172.29 264.74 330.87 173.18 330.87 168.09 172.29 259.65 172.29 264.74" style="fill: #0a4bdd; stroke-width: 0px;"/>
        <polygon points="172.29 264.74 330.87 173.18 330.87 168.09 172.29 259.65 172.29 264.74" style="fill: #fff; isolation: isolate; opacity: .4; stroke-width: 0px;"/>
      </g>
      <g id="freepik--Clipboard--inject-56">
        <g id="freepik--List--inject-56">
          <path d="M210.31,163.14v1c0,.34.19.65.48.83l53.92,31.11c.31.16.69.16,1,0l38.63-22.31c.28-.18.46-.49.48-.83v-1c-.02-.34-.2-.64-.48-.83l-53.93-31.13c-.31-.16-.69-.16-1,0l-38.62,22.3c-.29.19-.47.51-.48.86Z" style="fill: #0a4bdd; stroke-width: 0px;"/>
          <path d="M304.36,171.19c.2.15.18.37-.06.51l-38.63,22.3c-.15.07-.31.11-.48.11v2.08c.17,0,.33-.04.48-.11l38.63-22.31c.29-.18.46-.49.47-.83v-1c-.03-.3-.18-.57-.41-.75Z" style="fill: #000; isolation: isolate; opacity: .5; stroke-width: 0px;"/>
          <path d="M210.71,162.37h0l-.06.07h0c-.13.15-.21.33-.24.52,0,.04,0,.07,0,.11v1c0,.34.19.65.48.83l53.82,31.18c.15.07.31.11.48.11v-2.08c-.17,0-.33-.04-.48-.11l-53.92-31.13c-.08-.04-.15-.11-.19-.19-.03-.09,0-.2.06-.27l.05-.04Z" style="fill: #000; isolation: isolate; opacity: .6; stroke-width: 0px;"/>
          <g style="opacity: .3;">
            <path d="M210.34,162.9c0,.06,0,.12,0,.18h0c0-.06,0-.12,0-.18Z" style="fill: #000; stroke-width: 0px;"/>
            <path d="M304.3,171.7l-38.63,22.3c-.31.16-.69.16-1,0l-53.92-31.13c-.08-.04-.15-.11-.18-.19-.04-.09-.02-.2.05-.27h0l.08-.06,38.62-22.3c.31-.16.69-.16,1,0l53.93,31.13h.06c.25.17.22.38-.01.52Z" style="fill: #000; stroke-width: 0px;"/>
          </g>
          <path d="M224.91,149.35c0,.87,1.21,1.78,1.54,2.55.03.06.06.13.08.2-.17.55-.68.93-.79,1.29,0,.09,0,.17,0,.26v.73c0,.09,0,.31.07.51-.03.18-.07.36-.12.53-.11.3-.17.61-.18.92v.71c-.03.28.12.54.37.66l2.16,1.25,16.19-9.35v-.72l-2.17-1.25c-.36-.17-.76-.23-1.15-.16h-.14c-.36,0-.84,0-1.48.1-.81.09-1.63.11-2.44.06h-.62c-.15,0-.3,0-.45,0-1.22.37-2.5.51-3.77.42h-.06c-1.33-.19-2.9-.89-4.4-.89h-.15c-.6,0-1.19.16-1.71.46-.58.33-.8.69-.8,1l.02.72ZM227.37,149.85c.09-.16.22-.3.39-.38.13-.07.26-.13.4-.17,1.02-.24,2.09-.08,3,.45.37.19.68.48.87.85-.09.16-.23.29-.39.37-.69.32-1.47.38-2.2.17-.41-.09-.81-.24-1.17-.45-.38-.18-.7-.47-.9-.84Z" style="fill: #263238; stroke-width: 0px;"/>
          <path d="M240.91,147.48h-.14c-.36,0-.84,0-1.48.1-.81.09-1.63.11-2.44.06h-.62c-.15,0-.3,0-.45,0-1.22.37-2.5.51-3.77.42h-.06c-1.33-.19-2.9-.89-4.4-.89h-.15c-.6,0-1.19.16-1.71.46-2,1.14.27,2.52.74,3.61s-.55,1.67-.71,2.21.28.84-.09,2-.09,1.41.19,1.57l2.16,1.25,16.19-9.35-2.17-1.25c-.34-.17-.72-.24-1.09-.19ZM228.78,156.58c-.29.1-.61.07-.87-.1-.28-.17-.34-.4-.13-.52.29-.11.62-.09.89.08.24.14.34.37.13.49l-.02.05ZM231.58,151.02c-.69.32-1.47.38-2.2.17-.41-.09-.81-.24-1.17-.45-1.06-.61-1.27-1.48-.47-1.94.13-.07.26-.13.4-.17,1.02-.23,2.09-.07,3,.45,1.04.56,1.26,1.4.46,1.89l-.02.05ZM241.27,149.37c-.29.12-.62.09-.89-.07-.28-.17-.34-.4-.13-.52.29-.11.62-.09.89.08.3.11.36.34.15.46l-.02.05Z" style="fill: #37474f; stroke-width: 0px;"/>
          <path d="M263.69,190.61l33.61-19.41c.17-.11.28-.29.29-.49v-.38c-.01-.2-.12-.39-.29-.5l-44.39-25.64c-.18-.09-.4-.09-.58,0l-33.62,19.41c-.17.11-.28.3-.29.5v.38c0,.2.12.39.29.5l44.41,25.64c.18.09.39.08.57-.01Z" style="fill: #fafafa; stroke-width: 0px;"/>
          <path d="M297.37,169.89c.09.08.07.2-.06.27l-33.62,19.41c-.09.05-.19.07-.29.07v1c.1,0,.2-.02.29-.07l33.61-19.41c.17-.11.28-.29.29-.49v-.38c-.02-.16-.1-.3-.22-.4Z" style="fill: #f0f0f0; stroke-width: 0px;"/>
          <path d="M218.65,163.64s-.06.05-.08.08v.05s-.07.09-.09.15c0,.04,0,.07,0,.11,0,.02,0,.05,0,.07v.38c0,.2.12.39.29.5l44.41,25.64c.09.05.18.07.28.07v-1c-.1,0-.19-.02-.28-.07l-44.47-25.69c-.14-.08-.16-.2-.06-.29Z" style="fill: #e0e0e0; stroke-width: 0px;"/>
          <path d="M230.1,158.95v.73c.01.37.14.72.38,1l19.8-11.42v-.78c-.6-.31-1.26-.48-1.93-.49h0c-.45,0-.9.09-1.32.27-1.43.66-1.86.86-2.73,1.23-.45.17-.96.1-1.35-.19h0l-.6-.54-1.6-1.49c-.21-.18-.48-.27-.76-.24h0c-.13,0-.25,0-.38,0-.54.08-1.1.08-1.64,0-.65-.06-1.27-.3-1.79-.69-.77-.66-1.74-1.01-2.75-1h-.08c-.64,0-1.26.14-1.83.43-.84.36-1.34,1.24-1.2,2.14-.13.7.14,1.41.69,1.85.24.22.39.52.44.84-.05.34-.18.65-.39.92-.12.13-.2.3-.21.48v.72c0,.14.07.28.18.36l1.85,1.7.6.55.06.07c-.04.07-.09.13-.14.19l-2.49,1.89c-.47.35-.77.88-.81,1.47ZM235.39,148.09c-.13.32-.38.59-.7.74-.65.31-1.4.35-2.08.12-.29-.1-.56-.26-.79-.46-.17-.15-.3-.34-.38-.55.13-.32.38-.59.7-.74l.27-.12c.89-.31,1.87-.14,2.6.45.17.16.29.35.38.56Z" style="fill: #37474f; stroke-width: 0px;"/>
          <path d="M248.35,148.03h0c-.45,0-.9.09-1.32.27-1.43.66-1.86.86-2.73,1.23-.45.17-.96.1-1.35-.19h0l-.6-.54-1.6-1.49c-.21-.18-.48-.27-.76-.24h0c-.13,0-.25,0-.38,0-.54.08-1.1.08-1.64,0-.65-.06-1.27-.3-1.79-.69-.77-.66-1.74-1.01-2.75-1h-.08c-.64,0-1.26.14-1.83.43-.98.36-1.49,1.44-1.13,2.42.12.34.34.63.62.85.59.72.61,1.74.05,2.48-.46.55,0,.84,0,.84l1.85,1.71.6.54c.44.41-.08,1-.08,1l-2.52,1.83c-1,.93-1,1.69-.44,2.43l19.81-11.43c-.6-.3-1.26-.45-1.93-.45ZM235.01,146.82c.5.41.58,1.14.17,1.65-.13.16-.3.28-.49.35-.65.31-1.4.35-2.08.12-.29-.1-.56-.26-.79-.46-.5-.41-.58-1.14-.17-1.65.13-.16.3-.28.49-.35l.27-.12c.89-.3,1.87-.13,2.6.46Z" style="fill: #455a64; stroke-width: 0px;"/>
        </g>
        <path d="M234,169.54l10.51,6.07c.22.1.46.1.68,0l14.5-8.38c.19-.11.19-.28,0-.39l-10.5-6.07c-.22-.11-.47-.11-.69,0l-14.5,8.37c-.11.04-.17.15-.14.26.02.06.07.12.14.14Z" style="fill: #0a4bdd; isolation: isolate; opacity: .1; stroke-width: 0px;"/>
        <path d="M248.76,178.06l13.84,8c.28.14.62.14.9,0l14.29-8.25c.25-.14.25-.37,0-.52l-13.84-8c-.28-.14-.62-.14-.9,0l-14.29,8.25c-.14.06-.21.22-.16.36.03.07.08.13.16.16Z" style="fill: #0a4bdd; isolation: isolate; opacity: .1; stroke-width: 0px;"/>
        <polygon points="230.55 167.46 258.97 151.05 256.08 149.38 227.66 165.79 230.55 167.46" style="fill: #0a4bdd; stroke-width: 0px;"/>
        <g style="opacity: .3;">
          <path d="M252.21,160.21c-.09,0-.17-.05-.21-.12-.06-.11-.02-.25.09-.32l11.2-6.46c.11-.07.25-.03.32.07,0,0,0,0,0,0,.07.11.03.26-.09.33,0,0,0,0,0,0l-11.19,6.46s-.08.03-.12.03Z" style="fill: #455a64; stroke-width: 0px;"/>
          <path d="M254.14,161.33c-.08,0-.16-.05-.2-.12-.07-.11-.03-.26.08-.33,0,0,0,0,0,0l11.2-6.46c.11-.06.25-.03.32.08,0,0,0,0,0,0,.07.11.03.25-.07.32,0,0,0,0,0,0l-11.2,6.47s-.08.03-.12.03Z" style="fill: #455a64; stroke-width: 0px;"/>
          <path d="M256.07,162.48c-.08,0-.16-.04-.2-.11-.07-.11-.03-.26.09-.33,0,0,0,0,0,0l11.19-6.46c.1-.07.24-.04.3.06,0,0,.01.02.02.03.07.11.03.25-.07.32,0,0,0,0,0,0l-11.2,6.46s-.08.03-.12.03Z" style="fill: #455a64; stroke-width: 0px;"/>
          <path d="M258.01,163.56c-.13,0-.23-.12-.23-.25,0-.08.04-.15.11-.19l11.19-6.47c.12-.07.26-.03.33.09.07.12.03.26-.09.33l-11.19,6.46-.12.03Z" style="fill: #455a64; stroke-width: 0px;"/>
          <path d="M259.91,164.67c-.08,0-.16-.04-.21-.11-.06-.12-.02-.26.09-.33l11.19-6.46c.11-.07.26-.03.33.09,0,0,0,0,0,0,.06.11.02.25-.09.32l-11.19,6.46-.12.03Z" style="fill: #455a64; stroke-width: 0px;"/>
        </g>
        <g style="opacity: .3;">
          <path d="M267.67,169.13c-.08,0-.16-.05-.2-.12-.07-.11-.03-.25.07-.32,0,0,0,0,0,0l11.2-6.46c.11-.07.25-.03.32.07,0,0,0,0,0,0,.07.11.03.26-.08.33,0,0,0,0,0,0l-11.2,6.46-.12.03Z" style="fill: #455a64; stroke-width: 0px;"/>
          <path d="M269.6,170.25c-.08,0-.16-.05-.2-.12-.07-.11-.03-.26.09-.33,0,0,0,0,0,0l11.19-6.46c.11-.06.25-.03.32.08,0,0,0,0,0,0,.07.11.03.25-.07.32,0,0,0,0,0,0l-11.2,6.47s-.08.03-.12.03Z" style="fill: #455a64; stroke-width: 0px;"/>
          <path d="M271.54,171.36c-.13,0-.23-.12-.23-.25,0-.08.04-.15.11-.19l11.19-6.44c.11-.07.26-.03.33.08,0,0,0,0,0,0,.06.12.02.26-.09.33l-11.19,6.46h-.12Z" style="fill: #455a64; stroke-width: 0px;"/>
          <path d="M273.47,172.48c-.09,0-.17-.05-.21-.12-.06-.12-.02-.26.09-.33l11.19-6.46c.11-.07.26-.03.33.09,0,0,0,0,0,0,.06.11.02.25-.09.32l-11.19,6.5h-.12Z" style="fill: #455a64; stroke-width: 0px;"/>
          <path d="M275.4,173.59c-.09,0-.17-.05-.21-.12-.06-.11-.02-.25.09-.32l11.19-6.46c.11-.07.26-.03.33.08,0,0,0,0,0,0,.07.11.03.26-.09.33,0,0,0,0,0,0l-11.19,6.46s-.08.03-.12.03Z" style="fill: #455a64; stroke-width: 0px;"/>
          <path d="M277.33,174.71c-.09,0-.17-.05-.21-.12-.06-.11-.02-.25.09-.32l11.19-6.47c.12-.07.26-.03.33.09.07.12.03.26-.09.33l-11.19,6.46s-.08.03-.12.03Z" style="fill: #455a64; stroke-width: 0px;"/>
        </g>
      </g>
      <g id="freepik--Folder--inject-56">
        <polygon points="205.42 187.97 154.02 217.65 195.04 241.33 246.31 211.73 205.42 187.97" style="fill: #000; isolation: isolate; opacity: .2; stroke-width: 0px;"/>
        <path d="M244.22,210.07c.45-.16.68-.65.52-1.1-.09-.24-.28-.43-.52-.52l-39.49-23-51.41,29.73,39.59,22.88c.88.44,1.91.44,2.79,0l29.36-16.95,4.92.92c.31.06.63,0,.91-.15l12.19-7c.64-.38.86-1.2.48-1.85-.01-.02-.02-.04-.03-.05l-1.29-1.77,1.98-1.14Z" style="fill: #0a4bdd; stroke-width: 0px;"/>
        <path d="M244.22,210.07c.45-.16.68-.65.52-1.1-.09-.24-.28-.43-.52-.52l-39.49-23-51.41,29.73,39.59,22.88c.88.44,1.91.44,2.79,0l29.36-16.95,4.92.92c.31.06.63,0,.91-.15l12.19-7c.64-.38.86-1.2.48-1.85-.01-.02-.02-.04-.03-.05l-1.29-1.77,1.98-1.14Z" style="fill: #000; isolation: isolate; opacity: .15; stroke-width: 0px;"/>
        <polygon points="204.73 185.5 155.06 214.18 194.35 236.87 245.62 207.27 204.73 185.5" style="fill: #f0f0f0; stroke-width: 0px;"/>
        <path d="M153.32,215.18l39.59,18.37c.93.37,1.97.33,2.86-.12l48.48-28c.77-.45.74-1.11-.06-1.49l-39.46-18.46-51.41,29.7Z" style="fill: #0a4bdd; stroke-width: 0px;"/>
      </g>
      <g id="freepik--Laptop--inject-56">
        <path id="freepik--shadow--inject-56-5" data-name="freepik--shadow--inject-56" d="M203.06,180.85l-36.26-20.94c-.64-.37-1.44-.37-2.08,0l-62.91,36.33c-.22.14-.29.43-.15.65.04.06.09.11.15.15l36.6,21.13,64.65-37.32Z" style="fill: #000; isolation: isolate; opacity: .1; stroke-width: 0px;"/>
        <path d="M200.36,176.48v.81c0,1.2-.64,2.3-1.68,2.9l-58.59,33.79c-.51.29-1.08.44-1.67.44-.59,0-1.17-.15-1.69-.44l-31.94-18.38c-1.03-.6-1.66-1.71-1.67-2.9v-1.13h0c0,.15.08.29.21.37l35.08,20.25,61.95-35.71Z" style="fill: #37474f; stroke-width: 0px;"/>
        <path d="M138.42,212.2v2.28c.59,0,1.16-.16,1.67-.45l58.59-33.83c1.04-.6,1.68-1.7,1.68-2.9v-.82l-61.94,35.72Z" style="fill: #263238; stroke-width: 0px;"/>
        <path d="M200.36,176.48l-34.74-20c-.62-.36-1.38-.36-2,0l-60.27,34.8c-.21.12-.29.39-.17.6.04.07.1.13.17.17l35.07,20.25,61.94-35.82Z" style="fill: #455a64; stroke-width: 0px;"/>
        <polygon points="138.1 209.25 119.36 198.44 174.15 166.81 192.99 177.56 138.1 209.25" style="fill: #37474f; stroke-width: 0px;"/>
        <polygon points="192.99 177.56 192.27 177.97 174.15 167.63 120.07 198.86 119.36 198.44 174.15 166.81 192.99 177.56" style="fill: #263238; stroke-width: 0px;"/>
        <polygon points="128.88 179.18 129.23 179.38 138.41 184.69 154.75 175.25 155.09 175.06 145.56 169.56 128.88 179.18" style="fill: #263238; stroke-width: 0px;"/>
        <polygon points="129.23 179.38 138.41 184.69 154.75 175.25 145.56 169.95 129.23 179.38" style="fill: #37474f; stroke-width: 0px;"/>
        <path d="M141.35,179.92c-1.55-.27-4.2,4.79-7.3,4.15s-8.62-1.13-11.7-.4-7.42,2.85-11.2,2.4c-3.18-.38-8-1-13.6-2.09s-9.58-1.8-13.3-2.53c0,0-.09-6.49,2.69-10.31,1.62-2.26,3.81-4.04,6.35-5.18l15.17,5.82c5.93.3,9.35-1.61,13.11-3.73.82-.46,1.68-.89,2.53-1.29.96-.37,1.97-.57,3-.6,2.22-.24,4.2-.21,6.62-.57.17-.03.35,0,.5.08.4.23.31.85.1,1.26-.58,1.01-1.44,1.83-2.47,2.36-1.04.49-2.11.91-3.2,1.26.81.04,1.61.14,2.4.3,3.42.48,7.92,3.43,11.05,5.57s.81,3.77-.75,3.5Z" style="fill: #ffa8a7; stroke-width: 0px;"/>
        <path d="M126.96,169.08c-1.51.2-2.97.72-4.27,1.51,1.97-.24,3.95-.24,5.92,0,1.09-.35,2.16-.77,3.2-1.26.91-.47,1.68-1.16,2.26-2-1.52,1.44-4.97,1.59-7.11,1.75Z" style="fill: #f28f8f; stroke-width: 0px;"/>
        <path d="M139.36,212.69c1.12.43,2.38.34,3.42-.26l58.34-33.68c1.02-.6,1.73-1.61,1.93-2.78l6.38-38.08c.04-.22.06-.44.06-.66,0-1.06-.43-2.07-1.18-2.82l-60.62,35c-.75.44-1.27,1.19-1.43,2.05l-6.9,41.23Z" style="fill: #37474f; stroke-width: 0px;"/>
        <path d="M138.42,212.2l.39.23c.18.1.36.19.55.26l6.9-41.22c.16-.86.68-1.61,1.43-2.05l60.62-35c-.24-.24-.51-.44-.81-.61l-60.74,35.07c-.75.44-1.27,1.19-1.43,2.05l-6.91,41.27Z" style="fill: #455a64; stroke-width: 0px;"/>
        <path d="M146.83,170.2l-.94-.54c-.29.37-.48.8-.56,1.26l-6.91,41.28.39.23c.18.1.36.19.55.26l6.9-41.22c.08-.46.28-.9.57-1.27Z" style="fill: #263238; stroke-width: 0px;"/>
        <path d="M172.22,177.53c.42-2.55,3.06-5.93,5.88-7.56s4.76-.88,4.33,1.67-3.06,5.94-5.88,7.56-4.76.88-4.33-1.67Z" style="fill: #0a4bdd; stroke-width: 0px;"/>
      </g>
    </g>
  </g>
  <g id="freepik--character-2--inject-56">
    <g id="freepik--character--inject-56-3" data-name="freepik--character--inject-56">
      <g id="freepik--Legs--inject-56">
        <path d="M269.55,284.74s0-4.51,3.19-6c.57-.34,1.29-.31,1.84.06,0,0-3,.75-3.49,6.08,0,0-.13.36-.81.31-.23-.04-.73-.08-.73-.45Z" style="fill: #fafafa; stroke-width: 0px;"/>
        <path d="M266.78,280.82c-4.93.06-7.65-.57-13.54-.47-4.45.08-6.07,5.5-.7,9.94,2.35,1.76,4.93,3.17,7.68,4.19,7,2.14,12,.92,15.7,1.35,4.8.57,6.05,1.92,10,2.21,5.14.38,7-.43,8.37-2,1.61-3.72.59-5.07,1.14-9.43.31-2.41.14-3.43-.12-3.4-1.63-.19-26.13-2.41-28.53-2.39Z" style="fill: #455a64; stroke-width: 0px;"/>
        <path d="M295.16,283.57c.76-2.4,3.07-12.28,3.07-12.28,0,0-3.21,2.29-9.21,1.49-3.05-.41-5.1-8.35-5.1-8.35l-1.74,13.21c-1.19,3-7,3.18-12.71,3.24-1,0-1.94,0-2.94-.07h-.05c-3.06.22-5.87,2.42-2.4,4.61s8.8,2.52,13.7,2.78c5.89.28,15.6.95,17.38-4.63Z" style="fill: #f28f8f; stroke-width: 0px;"/>
        <path d="M288.91,210.74c-1.75,13.25-6.08,60.8-6.08,60.8,0,0,7.66,6,14.9,2.44,5.89-22,17.46-46.2,15.81-61.68l-24.63-1.56Z" style="fill: #263238; stroke-width: 0px;"/>
        <path d="M240.46,296.28c-4.93.06-7.66-.58-13.55-.47-4.44.08-6.06,5.5-.69,9.94,2.35,1.75,4.93,3.17,7.68,4.19,7,2.13,12,.92,15.7,1.35,4.8.57,6.05,1.92,10,2.21,5.14.38,7-.43,8.37-2,1.61-3.71.59-5.06,1.14-9.42.31-2.41.14-3.43-.12-3.4-1.63-.2-26.08-2.43-28.53-2.4Z" style="fill: #455a64; stroke-width: 0px;"/>
        <path d="M268.84,299.02c.76-2.39,3.07-12.27,3.07-12.27,0,0-3.21,2.29-9.21,1.48-3.05-.41-5.1-8.34-5.1-8.34l-1.69,13.21c-1.19,3-7,3.18-12.71,3.24-1,0-1.95,0-2.94-.07h-.06c-3.05.21-5.86,2.41-2.39,4.6s8.8,2.52,13.7,2.79c5.84.32,15.55.94,17.33-4.64Z" style="fill: #f28f8f; stroke-width: 0px;"/>
        <path d="M263.99,225.68c-2.19,10.05-5.6,47.69-7.86,62.31,4.61,2.48,9.9,3.4,15.07,2.61,3.45-11.09,19.86-50.47,16.09-62.84-2.38-7.81-10.82-4.62-10.82-4.62l-12.48,2.54Z" style="fill: #37474f; stroke-width: 0px;"/>
      </g>
      <path d="M395.5,330.93l-9.17-76.52-7.49-.38,12.88,76.89h0c.06.29.24.53.5.67.82.47,1.81.53,2.67.14.34-.12.57-.44.59-.8h.02Z" style="fill: #263238; stroke-width: 0px;"/>
      <path d="M292.81,247.48h-7.5l-10.92,72.25h0c0,.36.21.69.54.83.84.42,1.84.42,2.68,0,.26-.13.46-.37.53-.65h0l14.67-72.43Z" style="fill: #37474f; stroke-width: 0px;"/>
      <path d="M285.31,247.48l-3,20.16c1.78,1.39,3.71,2.57,5.76,3.52l4.74-23.68h-7.5Z" style="fill: #263238; stroke-width: 0px;"/>
      <path d="M345.37,356.59l-7-77.81-7.5-.38,10.77,78.18h0c.07.28.25.52.5.67.82.46,1.81.51,2.67.13.33-.12.57-.43.59-.79h-.03Z" style="fill: #37474f; stroke-width: 0px;"/>
      <path d="M339.35,290.15l-1-11.37-7.5-.38,1.7,12.3c1.64.51,4.61.15,6.8-.55Z" style="fill: #263238; stroke-width: 0px;"/>
      <path d="M333.76,223.67h-7.5l-10.92,72.25h0c0,.36.21.69.54.83.84.42,1.84.42,2.68,0,.26-.13.46-.37.53-.65h0l14.67-72.43Z" style="fill: #263238; stroke-width: 0px;"/>
      <path d="M280.69,245.99c-1.06-5.92,3.77-10.54,12.84-16.66,8.4-5.53,17.18-10.47,26.28-14.77,7.58-3.48,15.35-3.16,25.06,1.83,13.5,6.94,54.11,31.57,54.11,31.57,0,0-60.72,34.28-72.4,32.74s-40.89-20.52-43.2-27.22-2.69-7.49-2.69-7.49Z" style="fill: #0a4bdd; stroke-width: 0px;"/>
      <g style="opacity: .6;">
        <path d="M280.69,245.99c-1.06-5.92,3.77-10.54,12.84-16.66,8.4-5.53,17.18-10.47,26.28-14.77,7.58-3.48,15.35-3.16,25.06,1.83,13.5,6.94,54.11,31.57,54.11,31.57,0,0-60.72,34.28-72.4,32.74s-40.89-20.52-43.2-27.22-2.69-7.49-2.69-7.49Z" style="fill: #fff; stroke-width: 0px;"/>
      </g>
      <path d="M332.44,273.48c-8.71,7.89-17.83,1.1-32.24-8.25-16.31-10.59-19.51-19.25-19.51-19.25,0,0,0,6.49,1.21,9.53s3.86,6.49,15.62,14.6,20.29,12.18,28.2,13.68l6.24-.86" style="fill: #0a4bdd; stroke-width: 0px;"/>
      <path d="M300.2,265.24c-16.31-10.59-19.51-19.25-19.51-19.25,0,0,0,6.49,1.21,9.53s3.86,6.49,15.62,14.6,20.29,12.18,28.2,13.68l6.24-.86.48-9.45c-8.71,7.89-17.83,1.1-32.24-8.25Z" style="fill: #fff; isolation: isolate; opacity: .25; stroke-width: 0px;"/>
      <g id="freepik--top--inject-56">
        <path d="M368.67,214.7s-24.89-7.18-41.87-11c-14.33-3.19-21.19-4.21-25.36-2.9s-6.55,4.37-9.36,9.83c-2.37,4.61-4.54,9.58-4.54,9.58,0,0,29.5,14.53,45.59,16.41s35.54-21.92,35.54-21.92Z" style="fill: #263238; stroke-width: 0px;"/>
        <path d="M369.51,214.7c5.25,15.15,4.41,29.64-4.77,38.18-5.27,4.9-29.92,18.73-46,13.4-15.85-5.25-45.46-33-48.75-35.43s-6.3-4.12-6-5.17c4.43-14.7,10.92-15.85,22.92-13.2,14.68,3.23,43.67,19.73,43.67,19.73l38.93-17.51Z" style="fill: #37474f; stroke-width: 0px;"/>
        <polygon points="309.16 133.74 313.76 152.32 334.37 145.77 328.49 125.68 309.16 133.74" style="fill: #f28f8f; stroke-width: 0px;"/>
        <path d="M296.21,117.06c-2.99,0-5.42-2.43-5.42-5.42s2.43-5.42,5.42-5.42c2.99,0,5.42,2.43,5.42,5.42,0,2.99-2.43,5.41-5.42,5.42ZM296.21,107.22c-2.45,0-4.43,1.98-4.43,4.43s1.98,4.43,4.43,4.43,4.43-1.98,4.43-4.43h0c0-2.45-1.98-4.43-4.42-4.43,0,0,0,0-.01,0Z" style="fill: #263238; stroke-width: 0px;"/>
        <path d="M294.83,113.63s-3.68,6.21-3.12,6.82,3.2,1.13,3.2,1.13l-.08-7.95Z" style="fill: #b16668; stroke-width: 0px;"/>
        <path d="M337.17,93.29c-.04-.56-.16-1.1-.37-1.62-.51-1.04-1.21-1.97-2.06-2.75-1.67-1.56-3.66-2.73-5.83-3.44-3.37-1.11-6.93-1.5-10.46-1.16-3.39.29-6.53,1.14-10,.71-2.57-.47-5.16-.74-7.77-.82-2.61.08-5.34.93-7,3-1.17,1.53-1.72,3.43-1.57,5.35.15,1.9.71,3.75,1.65,5.41-2.43,1.95-2.8,5.69-1.55,8.54,1.71,3.9,5.69,6.1,8.95,8.54,2.56,1.92,5.02,3.96,7.38,6.13,1.17,1.01,2.29,2.08,3.35,3.2l.19.24c-.85.19-1.74.17-2.58-.06,0,0,.91,7.73,7.47,10.27,0,0,8.35,1.69,14.22-2,1.21-2.8,4.92-6.23,7.79-11.68,5.72-10.91,3.93-21.96-1.81-27.86Z" style="fill: #263238; stroke-width: 0px;"/>
        <path d="M315.22,122.42c-.7,1.13-1.84,1.92-3.14,2.18-.85.19-1.74.18-2.58-.05,0,0,1.48,6,5.81,9.44-1.13.77-2.37,1.37-3.67,1.78-3.6,1.31-10.66,1.25-12.09.06-2.14-1.8-5.73-6.66-4.78-21.32.38-6,1.75-10.18,3.5-13.19.44,2.08,1.9,3.8,3.89,4.56-.98,1.52-1.24,3.4-.69,5.12.65,2,2.3,3.55,3.88,5,.09.09.2.16.32.2.45.05.9-.05,1.29-.26,1.18-2,2.83-4.29,6.38-3.34,4.11,1.05,4.19,5.98,1.88,9.82Z" style="fill: #f28f8f; stroke-width: 0px;"/>
        <rect x="298.93" y="104.33" width=".87" height="16.25" transform="translate(148.15 394.24) rotate(-82.37)" style="fill: #263238; stroke-width: 0px;"/>
        <path d="M299.91,136.06c1.7.81,6.4.92,9.86.21l-.7-2.59c-1.28.78-2.66,1.37-4.11,1.76-1.64.46-3.34.67-5.05.62Z" style="fill: #b16668; stroke-width: 0px;"/>
        <path d="M305.37,121.11c-1.79-.5-2.84-2.36-2.34-4.15,0-.02.01-.04.02-.06.56-1.81,2.47-2.83,4.29-2.29l-1.97,6.5Z" style="fill: #263238; stroke-width: 0px;"/>
        <path d="M343.65,79.07c-1.95-.34-3.95-.15-5.8.56-.98-1.12-2.31-1.88-3.78-2.15-3.6-.68-7.07,1.69-7.74,5.28-.62,3.28,1.29,6.5,4.46,7.54.19,4.8,3.48,8.93,8.12,10.18.43,3.64,3.73,6.23,7.37,5.8,3.64-.43,6.23-3.73,5.8-7.37-.13-1.09-.53-2.14-1.17-3.04,3.31-5.1,1.85-11.91-3.24-15.21-1.21-.78-2.56-1.32-3.98-1.59h-.04Z" style="fill: #263238; stroke-width: 0px;"/>
        <path d="M331.59,136.29c10.88-5.94,21.45-.49,25.29,7,4.83,9.45,4.08,24.23,4.08,24.23-5.7-5.61-29.37-31.23-29.37-31.23Z" style="fill: #b16668; stroke-width: 0px;"/>
        <path d="M332.44,139.16l-.85-2.87c12.28-5.84,20.25,2,26.88,18.61,3.82,9.57,2.2,22.1,3.41,36.35.87,10.27,5.56,11.75,10.15,30.11,0,0-6.67,10.48-22,14.24s-36.48.44-40.2-11.43c0,0-.13-10-.63-18.87-.43-7.6-4.66-19.31-8.37-27.95-3.5-8.17-8.13-23.36,1.4-29,2.79-1.65,5.65-2.76,9.46-4.58,8.63,2.86,21.87-1.17,20.75-4.61Z" style="fill: #0a4bdd; stroke-width: 0px;"/>
        <path d="M288.13,225.27c-4.71-1.8-7.61-7.12-8.19-10.57s1-9.1,2.8-12.25,5.39,22.82,5.39,22.82Z" style="fill: #b16668; stroke-width: 0px;"/>
        <path d="M282.66,203c1.35-8.32,3.55-21.18,6.31-34.74,2.69-13.18,4.9-15.66,11.77-18.52,16.68,9.93,8.48,32.47,8.48,32.47,0,0-6.39,26.14-9.82,34.43-2.23,5.39-6.62,11.44-12.49,8s-5.61-13.33-4.25-21.64Z" style="fill: #f28f8f; stroke-width: 0px;"/>
      </g>
      <path d="M331.96,282.94c5-.25,8.85-3.9,20.65-8.81,21.79-9.08,38.14-16.35,44.36-27.76s10.64-62.6,9.08-76.87c-.15-1.62-.5-3.21-1.06-4.73l1.53-.23-4-3.38h0c-4.07-3.32-10.7-.36-15.69,2.36-14.27,7.76-25.43,15.31-34.25,42.55-6.63,20.49-11,57.42-20.17,67.41" style="fill: #0a4bdd; stroke-width: 0px;"/>
      <path d="M404.99,164.77l1.53-.23-4-3.38h0c-4.07-3.32-10.7-.36-15.69,2.36-14.27,7.76-25.43,15.31-34.25,42.55-6.63,20.49-11,57.42-20.17,67.41l-.48,9.45c5-.25,8.85-3.9,20.65-8.81,21.79-9.08,38.14-16.35,44.36-27.76s10.64-62.6,9.08-76.87c-.14-1.61-.48-3.2-1.03-4.72Z" style="fill: #fff; isolation: isolate; opacity: .25; stroke-width: 0px;"/>
      <path d="M390.63,165.36c-14.26,7.77-27.67,16.26-35.22,44.18-7.48,27.64-12.31,69.59-29.69,74.26,0,0,7.86,3.12,31.94-7.06,7.67-3.24,17-9.15,23.07-12.58,12-6.72,19.23-12.22,20.38-14.28,6.33-11.36,10.64-62.61,9.08-76.87s-12.41-11.53-19.56-7.65Z" style="fill: #0a4bdd; stroke-width: 0px;"/>
      <g style="opacity: .4;">
        <path d="M390.63,165.36c-14.26,7.77-27.67,16.26-35.22,44.18-7.48,27.64-12.31,69.59-29.69,74.26,0,0,7.86,3.12,31.94-7.06,7.67-3.24,17-9.15,23.07-12.58,12-6.72,19.23-12.22,20.38-14.28,6.33-11.36,10.64-62.61,9.08-76.87s-12.41-11.53-19.56-7.65Z" style="fill: #fff; stroke-width: 0px;"/>
      </g>
    </g>
    <g id="freepik--Exclamation--inject-56">
      <path d="M373.42,97.27c-.3.39-.85.47-1.25.18l-3.34-2.47c-.39-.29-.48-.84-.19-1.24l2-2.69c.29-.39.85-.48,1.25-.18,0,0,0,0,0,0l3.34,2.47c.39.29.48.84.19,1.24l-2,2.69ZM377.64,91.56c-.14.19-.35.31-.59.34-.23.04-.47-.01-.66-.16l-3.35-2.47c-.19-.14-.31-.35-.34-.58-.05-.23.01-.47.16-.66l8.45-11.45c.14-.19.35-.32.59-.35.23-.04.47.01.66.16l3.34,2.47c.19.14.32.35.35.59.04.23-.02.47-.16.66l-8.45,11.45Z" style="fill: #0a4bdd; stroke-width: 0px;"/>
      <path d="M376.13,108.35c-.46.17-.97-.04-1.17-.48l-1.6-3.84c-.19-.46.03-.98.48-1.17l3.07-1.28c.46-.19.98.03,1.17.48l1.6,3.84c.09.22.09.46,0,.68-.08.22-.25.4-.47.49l-3.08,1.28ZM382.68,105.62c-.22.09-.46.09-.68,0-.22-.09-.39-.26-.48-.48l-1.6-3.84c-.1-.22-.1-.46,0-.68.08-.22.25-.4.47-.49l13.14-5.47c.22-.09.46-.09.68,0,.22.09.39.26.49.48l1.6,3.84c.09.22.09.46,0,.68-.08.22-.25.4-.47.49l-13.15,5.47Z" style="fill: #0a4bdd; stroke-width: 0px;"/>
      <g style="opacity: .2;">
        <path d="M376.13,108.35c-.46.17-.97-.04-1.17-.48l-1.6-3.84c-.19-.46.03-.98.48-1.17l3.07-1.28c.46-.19.98.03,1.17.48l1.6,3.84c.09.22.09.46,0,.68-.08.22-.25.4-.47.49l-3.08,1.28ZM382.68,105.62c-.22.09-.46.09-.68,0-.22-.09-.39-.26-.48-.48l-1.6-3.84c-.1-.22-.1-.46,0-.68.08-.22.25-.4.47-.49l13.14-5.47c.22-.09.46-.09.68,0,.22.09.39.26.49.48l1.6,3.84c.09.22.09.46,0,.68-.08.22-.25.4-.47.49l-13.15,5.47Z" style="fill: #000; stroke-width: 0px;"/>
      </g>
    </g>
    <g id="freepik--Idea--inject-56">
      <g id="freepik--Light--inject-56">
        <path d="M317.42,68.76c-.03,1.07-.93,1.91-2,1.88-1.07-.03-1.91-.93-1.88-2,.03-1.05.9-1.89,1.96-1.88,1.07,0,1.93.87,1.92,1.94,0,.02,0,.04,0,.06Z" style="fill: #37474f; stroke-width: 0px;"/>
        <path d="M313.16,68.84c-1.28-.76-1.26-2,0-2.68,1.46-.74,3.18-.74,4.64,0,1.27.75,1.26,2,0,2.68-1.46.73-3.18.73-4.64,0Z" style="fill: #455a64; stroke-width: 0px;"/>
        <path d="M313.1,68.14c-1.32-.78-1.31-2,0-2.76,1.51-.76,3.28-.76,4.79,0,1.31.77,1.3,2,0,2.76-1.51.76-3.28.76-4.79,0Z" style="fill: #37474f; stroke-width: 0px;"/>
        <path d="M313.03,67.42c-1.35-.8-1.34-2.08,0-2.85,1.55-.79,3.38-.79,4.93,0,1.35.8,1.34,2.08,0,2.85-1.55.79-3.38.79-4.93,0Z" style="fill: #455a64; stroke-width: 0px;"/>
        <path d="M312.96,66.67c-1.39-.82-1.38-2.14,0-2.93,1.61-.79,3.5-.77,5.09.05,1.39.83,1.38,2.14,0,2.94-1.61.8-3.5.77-5.09-.06Z" style="fill: #37474f; stroke-width: 0px;"/>
        <path d="M312.91,65.89c-1.43-.84-1.41-2.18,0-3,1.64-.81,3.57-.79,5.19.05,1.42.85,1.41,2.19,0,3-1.64.82-3.57.8-5.19-.05Z" style="fill: #455a64; stroke-width: 0px;"/>
        <path d="M315.75,43.38c-5.09-.06-9.26,4.03-9.32,9.12h0c-.08,7.32,6,8.6,5.92,11.55.05.57.4,1.07.92,1.31,1.41.73,3.08.75,4.5.05.52-.23.88-.72.94-1.29h0c0-2.95,6.09-4.11,6.16-11.43.06-5.09-4.02-9.25-9.11-9.31,0,0,0,0-.01,0Z" style="fill: #0a4bdd; stroke-width: 0px;"/>
        <g style="opacity: .6;">
          <path d="M315.75,43.38c-5.09-.06-9.26,4.03-9.32,9.12h0c-.08,7.32,6,8.6,5.92,11.55.05.57.4,1.07.92,1.31,1.41.73,3.08.75,4.5.05.52-.23.88-.72.94-1.29h0c0-2.95,6.09-4.11,6.16-11.43.06-5.09-4.02-9.25-9.11-9.31,0,0,0,0-.01,0Z" style="fill: #fff; stroke-width: 0px;"/>
        </g>
        <path d="M313.83,64.96c-.54-.12-.88-.66-.75-1.2.09-.37.38-.67.75-.75,1.06-.54,2.32-.54,3.38,0,.55,0,1,.45,1,1s-.45,1-1,1c-1.07.52-2.33.51-3.38-.05Z" style="fill: #0a4bdd; stroke-width: 0px;"/>
        <path d="M316.76,63.79c-.17,0-.3-.14-.31-.31.03-1.78.27-3.54.71-5.26.13-.5.28-.98.47-1.46-.27-.11-.54-.24-.79-.4-.45-.27-.86-.61-1.22-1-.36.39-.77.73-1.23,1-.25.16-.52.28-.8.38.17.48.32.97.44,1.47.4,1.73.6,3.5.59,5.28-.03.17-.2.29-.37.26-.13-.02-.24-.13-.26-.26.02-1.72-.18-3.44-.57-5.11-.12-.5-.27-.99-.45-1.47-.63.12-1.28-.08-1.74-.53-.35-.34-.4-.89-.12-1.29.19-.28.53-.42.86-.35.49.1,1,.62,1.37,1.45.25-.09.5-.2.73-.34.44-.27.84-.6,1.17-1-.38-.5-.54-1.14-.43-1.76.1-.38.45-.64.84-.61.39-.02.75.25.84.63.09.62-.09,1.26-.48,1.75.33.39.72.73,1.16,1,.23.15.47.27.72.36.42-.83.91-1.33,1.4-1.42.33-.06.67.09.85.37.27.41.2.95-.15,1.28-.47.44-1.12.62-1.75.5-.19.47-.35.96-.48,1.45-.43,1.67-.65,3.38-.68,5.1,0,.17-.13.31-.3.32,0,0,0,0-.01,0v-.03ZM311.76,55.3c-.07,0-.14.05-.18.11-.15.21,0,.44.08.5.26.26.63.39,1,.35-.33-.62-.65-.91-.85-1l-.05.04ZM318.51,56.3c.37.05.73-.08,1-.33.14-.12.18-.33.09-.49-.08-.12-.16-.13-.22-.12s-.47.35-.84.96l-.03-.02ZM315.62,53.03c-.11-.02-.22.06-.24.17-.04.35.03.7.22,1,.2-.29.29-.65.25-1,.06-.08-.04-.14-.2-.15l-.03-.02Z" style="fill: #fff; stroke-width: 0px;"/>
      </g>
      <path d="M315.84,39.86c-.05.01-.11.01-.16,0-.33,0-.6-.27-.6-.6h0v-3.14c0-.33.27-.6.6-.6h0c.33,0,.6.27.6.6h0v3.14c.01.28-.17.53-.44.6Z" style="fill: #e0e0e0; stroke-width: 0px;"/>
      <path d="M309.13,41.63c-.26.07-.54-.04-.67-.28l-1.55-2.73c-.23-.24-.23-.62,0-.85.24-.23.62-.23.85,0,.07.07.12.15.15.24l1.56,2.73c.17.28.08.64-.2.81,0,0-.01,0-.02.01l-.12.06Z" style="fill: #e0e0e0; stroke-width: 0px;"/>
      <path d="M304.21,46.48c-.15.04-.32.02-.46-.06l-2.71-1.58c-.24-.23-.24-.61,0-.85.16-.16.39-.22.61-.15l2.72,1.58c.29.17.38.54.21.83-.09.12-.22.2-.36.23Z" style="fill: #e0e0e0; stroke-width: 0px;"/>
      <path d="M302.39,53.21h-3.3c-.33-.04-.57-.35-.53-.68.04-.28.25-.49.53-.53h3.14c.33.01.59.28.6.61.01.28-.17.53-.44.6Z" style="fill: #e0e0e0; stroke-width: 0px;"/>
      <path d="M330.08,61.59c-.15.04-.32.02-.46-.06l-2.71-1.58c-.24-.23-.25-.61-.02-.85.16-.17.41-.23.63-.15l2.71,1.58c.29.17.39.54.22.83-.09.12-.22.2-.37.23Z" style="fill: #e0e0e0; stroke-width: 0px;"/>
      <path d="M301.29,61.59c.15.04.32.02.46-.06l2.71-1.58c.24-.23.24-.61,0-.85-.16-.16-.39-.22-.61-.15l-2.72,1.53c-.28.17-.38.54-.22.83.08.14.22.24.37.28Z" style="fill: #e0e0e0; stroke-width: 0px;"/>
      <path d="M332.33,53.33c-.05,0-.11,0-.16,0h-3.14c-.33,0-.6-.27-.6-.6h0c0-.33.25-.59.58-.6,0,0,.01,0,.02,0h3.14c.33,0,.59.25.6.58,0,0,0,.01,0,.02.01.28-.17.53-.44.6Z" style="fill: #e0e0e0; stroke-width: 0px;"/>
      <path d="M327.42,46.61c-.32.09-.65-.09-.74-.41-.08-.27.04-.56.28-.69l2.73-1.56c.24-.23.62-.23.85,0s.23.62,0,.85c-.07.07-.15.12-.24.15l-2.73,1.56s-.09.08-.14.1Z" style="fill: #e0e0e0; stroke-width: 0px;"/>
      <path d="M322.54,41.69c-.16.04-.32.02-.46-.07-.29-.16-.39-.52-.23-.8,0,0,0-.01.01-.02l1.58-2.71c.23-.24.61-.24.85,0,.16.16.22.39.15.61l-1.53,2.72c-.08.14-.22.24-.37.28Z" style="fill: #e0e0e0; stroke-width: 0px;"/>
    </g>
  </g>
  <g id="freepik--Gears--inject-56">
    <g id="freepik--gears--inject-56">
      <path d="M281.6,40.48h-.22l-2.19-.34c-.66-.08-1.13-.68-1.05-1.33,0-.08.03-.15.05-.23l1.2-4c.04-.31-.06-.63-.29-.85-.23-.22-.45-.45-.65-.7-.11-.16-.33-.21-.5-.1l-2.74,2.08c-.42.36-1.05.32-1.41-.1-.12-.14-.2-.31-.23-.49l-.75-3.09c-.14-.68.05-1.38.51-1.9l2.69-2.82c.27-.33.44-.73.48-1.16.04-.73.11-1.45.22-2.17.04-.25-.1-.49-.33-.58l-1.73-.61c-.33-.11-.61-.36-.76-.68-.13-.32-.13-.68,0-1l1.66-4.52c.27-.66.89-1.1,1.6-1.13h2.08c.35-.03.67-.22.87-.51.44-.74.91-1.46,1.39-2.13.23-.35.34-.76.32-1.17l-.4-3.07c-.06-.68.19-1.36.68-1.84l3.07-2.75c.27-.26.64-.36,1-.29.34.1.62.36.73.7l.89,2.38c.02.07.07.12.14.15.08.03.17.03.25,0,.44-.21.89-.4,1.36-.55.37-.14.68-.4.87-.74l1.78-4c.31-.65.99-1.02,1.7-.93l2.19.34c.36.04.68.25.87.55.18.3.23.66.13,1l-1.2,4c-.05.31.06.63.28.85.24.21.46.45.66.7.1.16.32.21.48.1,0,0,0,0,0,0l2.74-2.08c.28-.22.66-.3,1-.19.34.13.58.43.65.78l.74,3.09c.14.68-.05,1.38-.51,1.89l-2.69,2.83c-.26.33-.43.74-.47,1.16-.03.72-.11,1.45-.23,2.16-.03.25.11.49.34.59l1.72.61c.34.11.61.36.76.68.15.31.17.67.05,1l-1.72,4.41c-.26.65-.89,1.1-1.59,1.13h-2.09c-.35.04-.66.23-.86.52-.44.74-.91,1.46-1.4,2.13-.23.35-.34.76-.31,1.17l.39,3.07c.06.68-.19,1.35-.68,1.83l-3.07,2.76c-.25.27-.64.38-1,.28-.35-.1-.63-.36-.74-.7l-.89-2.37c-.02-.07-.07-.13-.14-.16-.08-.03-.16-.03-.24,0-.44.21-.9.39-1.36.55-.37.13-.68.4-.88.74l-1.77,4c-.24.6-.81,1.01-1.46,1.05ZM278.15,31.82c.42,0,.81.2,1.06.53.17.21.36.41.56.6.5.46.72,1.16.56,1.83l-1.2,4.05c-.03.07-.03.15,0,.22.04.06.11.1.19.11l2.19.34c.28.03.54-.11.67-.36l1.77-4c.31-.59.83-1.05,1.46-1.27.42-.14.84-.3,1.24-.5.32-.14.68-.14,1,0,.32.13.58.39.69.72l.89,2.37s.03.07.06.1c.03-.01.07-.03.09-.06l3.07-2.76c.26-.27.39-.63.37-1l-.4-3.06c-.05-.66.13-1.33.5-1.88.48-.64.93-1.31,1.34-2,.37-.58,1-.96,1.69-1h2.08c.31-.03.57-.22.7-.5l1.67-4.51c.04-.09.04-.19,0-.28-.04-.09-.11-.15-.2-.18l-1.73-.6c-.68-.25-1.1-.94-1-1.66.11-.68.18-1.37.22-2.06.05-.66.31-1.28.74-1.78l2.69-2.83c.23-.28.33-.64.27-1h0l-.75-3.09s0-.06,0-.09h-.08l-2.74,2.07c-.58.43-1.4.32-1.84-.26-.17-.21-.35-.41-.55-.6-.53-.5-.73-1.25-.52-1.95l1.2-4c.04-.07.04-.14,0-.21-.04-.06-.11-.1-.18-.11l-2.2-.34c-.27-.02-.53.12-.66.36l-1.78,4c-.31.61-.85,1.08-1.5,1.3-.42.15-.84.32-1.24.51-.31.15-.67.17-1,.05-.32-.13-.57-.39-.69-.72l-.95-2.42c0-.07,0-.1-.06-.1-.03.01-.07.03-.09.06l-3.07,2.76c-.25.27-.38.63-.36,1l.39,3.06c.06.66-.11,1.32-.49,1.87-.47.65-.92,1.34-1.35,2-.37.58-.99.96-1.68,1h-2.09c-.3.03-.57.22-.69.5l-1.67,4.51c-.04.09-.04.18,0,.27.04.09.11.15.2.19l1.73.6c.69.24,1.11.94,1,1.66-.11.68-.18,1.37-.21,2.06-.05.66-.31,1.28-.74,1.78l-2.7,2.82c-.22.28-.32.64-.26,1l.74,3.09s0,.06,0,.09h.08l2.74-2.07c.24-.18.53-.27.82-.25v.02ZM285.02,29.18c-.39,0-.78-.06-1.15-.17-1.45-.53-2.5-1.8-2.75-3.32-.91-3.8,1.14-9.4,4.58-12.49,1.91-1.72,4-2.41,5.65-1.89,1.45.53,2.51,1.8,2.76,3.32.91,3.79-1.14,9.39-4.58,12.48h0c-1.2,1.21-2.81,1.94-4.51,2.05v.02ZM290.19,12.11c-1.46.12-2.82.77-3.84,1.82-3.2,2.87-5.12,8-4.28,11.53.17,1.19.97,2.19,2.09,2.62,1.34.41,3.06-.2,4.72-1.69,3.2-2.88,5.12-8,4.28-11.53-.17-1.19-.97-2.19-2.09-2.62-.28-.1-.58-.15-.88-.15v.02Z" style="fill: #0a4bdd; stroke-width: 0px;"/>
      <g style="opacity: .4;">
        <path d="M281.6,40.48h-.22l-2.19-.34c-.66-.08-1.13-.68-1.05-1.33,0-.08.03-.15.05-.23l1.2-4c.04-.31-.06-.63-.29-.85-.23-.22-.45-.45-.65-.7-.11-.16-.33-.21-.5-.1l-2.74,2.08c-.42.36-1.05.32-1.41-.1-.12-.14-.2-.31-.23-.49l-.75-3.09c-.14-.68.05-1.38.51-1.9l2.69-2.82c.27-.33.44-.73.48-1.16.04-.73.11-1.45.22-2.17.04-.25-.1-.49-.33-.58l-1.73-.61c-.33-.11-.61-.36-.76-.68-.13-.32-.13-.68,0-1l1.66-4.52c.27-.66.89-1.1,1.6-1.13h2.08c.35-.03.67-.22.87-.51.44-.74.91-1.46,1.39-2.13.23-.35.34-.76.32-1.17l-.4-3.07c-.06-.68.19-1.36.68-1.84l3.07-2.75c.27-.26.64-.36,1-.29.34.1.62.36.73.7l.89,2.38c.02.07.07.12.14.15.08.03.17.03.25,0,.44-.21.89-.4,1.36-.55.37-.14.68-.4.87-.74l1.78-4c.31-.65.99-1.02,1.7-.93l2.19.34c.36.04.68.25.87.55.18.3.23.66.13,1l-1.2,4c-.05.31.06.63.28.85.24.21.46.45.66.7.1.16.32.21.48.1,0,0,0,0,0,0l2.74-2.08c.28-.22.66-.3,1-.19.34.13.58.43.65.78l.74,3.09c.14.68-.05,1.38-.51,1.89l-2.69,2.83c-.26.33-.43.74-.47,1.16-.03.72-.11,1.45-.23,2.16-.03.25.11.49.34.59l1.72.61c.34.11.61.36.76.68.15.31.17.67.05,1l-1.72,4.41c-.26.65-.89,1.1-1.59,1.13h-2.09c-.35.04-.66.23-.86.52-.44.74-.91,1.46-1.4,2.13-.23.35-.34.76-.31,1.17l.39,3.07c.06.68-.19,1.35-.68,1.83l-3.07,2.76c-.25.27-.64.38-1,.28-.35-.1-.63-.36-.74-.7l-.89-2.37c-.02-.07-.07-.13-.14-.16-.08-.03-.16-.03-.24,0-.44.21-.9.39-1.36.55-.37.13-.68.4-.88.74l-1.77,4c-.24.6-.81,1.01-1.46,1.05ZM278.15,31.82c.42,0,.81.2,1.06.53.17.21.36.41.56.6.5.46.72,1.16.56,1.83l-1.2,4.05c-.03.07-.03.15,0,.22.04.06.11.1.19.11l2.19.34c.28.03.54-.11.67-.36l1.77-4c.31-.59.83-1.05,1.46-1.27.42-.14.84-.3,1.24-.5.32-.14.68-.14,1,0,.32.13.58.39.69.72l.89,2.37s.03.07.06.1c.03-.01.07-.03.09-.06l3.07-2.76c.26-.27.39-.63.37-1l-.4-3.06c-.05-.66.13-1.33.5-1.88.48-.64.93-1.31,1.34-2,.37-.58,1-.96,1.69-1h2.08c.31-.03.57-.22.7-.5l1.67-4.51c.04-.09.04-.19,0-.28-.04-.09-.11-.15-.2-.18l-1.73-.6c-.68-.25-1.1-.94-1-1.66.11-.68.18-1.37.22-2.06.05-.66.31-1.28.74-1.78l2.69-2.83c.23-.28.33-.64.27-1h0l-.75-3.09s0-.06,0-.09h-.08l-2.74,2.07c-.58.43-1.4.32-1.84-.26-.17-.21-.35-.41-.55-.6-.53-.5-.73-1.25-.52-1.95l1.2-4c.04-.07.04-.14,0-.21-.04-.06-.11-.1-.18-.11l-2.2-.34c-.27-.02-.53.12-.66.36l-1.78,4c-.31.61-.85,1.08-1.5,1.3-.42.15-.84.32-1.24.51-.31.15-.67.17-1,.05-.32-.13-.57-.39-.69-.72l-.95-2.42c0-.07,0-.1-.06-.1-.03.01-.07.03-.09.06l-3.07,2.76c-.25.27-.38.63-.36,1l.39,3.06c.06.66-.11,1.32-.49,1.87-.47.65-.92,1.34-1.35,2-.37.58-.99.96-1.68,1h-2.09c-.3.03-.57.22-.69.5l-1.67,4.51c-.04.09-.04.18,0,.27.04.09.11.15.2.19l1.73.6c.69.24,1.11.94,1,1.66-.11.68-.18,1.37-.21,2.06-.05.66-.31,1.28-.74,1.78l-2.7,2.82c-.22.28-.32.64-.26,1l.74,3.09s0,.06,0,.09h.08l2.74-2.07c.24-.18.53-.27.82-.25v.02ZM285.02,29.18c-.39,0-.78-.06-1.15-.17-1.45-.53-2.5-1.8-2.75-3.32-.91-3.8,1.14-9.4,4.58-12.49,1.91-1.72,4-2.41,5.65-1.89,1.45.53,2.51,1.8,2.76,3.32.91,3.79-1.14,9.39-4.58,12.48h0c-1.2,1.21-2.81,1.94-4.51,2.05v.02ZM290.19,12.11c-1.46.12-2.82.77-3.84,1.82-3.2,2.87-5.12,8-4.28,11.53.17,1.19.97,2.19,2.09,2.62,1.34.41,3.06-.2,4.72-1.69,3.2-2.88,5.12-8,4.28-11.53-.17-1.19-.97-2.19-2.09-2.62-.28-.1-.58-.15-.88-.15v.02Z" style="fill: #fff; stroke-width: 0px;"/>
      </g>
      <path d="M259,63.95h-.17l-1.58-.24c-.28-.04-.53-.2-.69-.44-.14-.24-.18-.53-.1-.8l.87-2.94c.03-.2-.04-.39-.19-.53-.17-.16-.33-.33-.48-.51,0-.06-.15-.14-.24-.06l-2,1.5c-.22.18-.53.24-.8.15-.27-.1-.47-.34-.52-.62l-.54-2.24c-.11-.52.04-1.06.39-1.45l1.95-2.05c.18-.23.29-.5.32-.79.02-.53.08-1.06.17-1.58.02-.14-.06-.27-.19-.33l-1.26-.44c-.26-.09-.47-.28-.59-.53-.11-.26-.11-.55,0-.81l1.21-3.28c.21-.5.69-.84,1.23-.87h1.51c.23-.03.43-.15.56-.34.31-.53.66-1,1-1.55.16-.23.24-.51.22-.79l-.29-2.22c-.04-.52.15-1.04.52-1.41l2.23-2c.21-.19.5-.28.78-.22.28.08.5.29.59.56l.65,1.72c.08.08.12.07.16.05.32-.16.66-.29,1-.4.24-.09.45-.26.58-.49l1.29-2.9c.23-.5.77-.8,1.32-.73l1.59.25c.28.04.53.2.68.44.15.24.19.53.11.8l-.87,2.94c-.03.19.04.39.18.52.17.16.34.34.49.52.05.08.15.11.23.07,0,0,0,0,0,0l2-1.51c.22-.18.52-.24.79-.15.27.11.47.34.53.63l.54,2.24c.1.52-.04,1.05-.39,1.45l-1.95,2.05c-.18.22-.3.49-.32.78-.03.53-.09,1.06-.17,1.58-.02.14.06.27.19.33l1.25.44c.26.09.48.29.6.54.11.26.11.55,0,.81l-1.21,3.27c-.2.51-.68.85-1.23.88h-1.52c-.22.03-.42.15-.55.33-.32.54-.66,1.06-1,1.55-.15.24-.22.51-.21.79l.28,2.23c.05.52-.14,1.04-.52,1.4l-2.22,2c-.21.2-.5.29-.78.22-.28-.07-.51-.28-.6-.56l-.64-1.72c-.09-.07-.12-.07-.16,0-.32.16-.66.29-1,.41-.25.09-.45.26-.58.49l-1.29,2.9c-.23.42-.69.68-1.17.67ZM256.5,57.5c.33,0,.64.16.84.42.12.15.25.29.39.42.39.36.56.9.44,1.42l-.87,2.93.08.14,1.59.24c.16.01.31-.07.39-.21l1.29-2.91c.23-.46.62-.82,1.11-1,.3-.1.59-.22.88-.36.26-.12.56-.12.82,0,.25.11.45.31.55.57l.64,1.72,2.2-2c.16-.17.25-.4.24-.64l-.29-2.22c-.04-.5.1-1,.38-1.42.34-.47.67-1,1-1.48.28-.45.76-.73,1.29-.76h1.51c.19-.02.35-.13.43-.3l1.21-3.27s.02-.1,0-.14c-.02-.04-.06-.07-.1-.08l-1.25-.44c-.53-.2-.84-.74-.76-1.3.08-.5.13-1,.16-1.48.04-.5.24-.97.56-1.35l2-2c.14-.18.21-.42.17-.65h0l-.54-2.24-1.94,1.52c-.43.35-1.06.28-1.41-.15-.01-.01-.02-.03-.03-.05-.12-.15-.25-.29-.4-.42-.39-.36-.55-.9-.43-1.42l.87-2.94v-.11h-.1l-1.59-.25c-.16-.01-.32.07-.39.22l-1.29,2.9c-.23.46-.62.82-1.11,1-.31.1-.6.22-.89.36-.5.24-1.1.03-1.33-.47,0-.02-.02-.04-.03-.06l-.65-1.72-2.19,2c-.17.17-.25.41-.24.65l.28,2.22c.04.5-.09,1-.37,1.42-.36.48-.69.97-1,1.48-.29.44-.76.72-1.29.76h-1.51c-.19.02-.35.14-.43.31l-1.25,3.12s-.02.09,0,.13c.02.04.06.07.1.09l1.26.44c.52.2.84.74.76,1.29-.09.49-.14.99-.16,1.49-.04.5-.23.97-.56,1.34l-1.95,2.05c-.14.18-.21.41-.18.64l.54,2.24,1.94-1.52c.18-.13.39-.2.61-.19v.02ZM261.5,55.75c-.29,0-.58-.04-.86-.12-1.08-.39-1.87-1.33-2.05-2.47-.67-2.78.83-6.87,3.34-9.13,1.41-1.27,2.93-1.78,4.18-1.39,1.08.39,1.86,1.34,2.05,2.47.67,2.77-.83,6.87-3.34,9.13h0c-.89.89-2.07,1.43-3.33,1.51h.01ZM265.24,43.38c-1.04.09-2.01.55-2.73,1.3-2.3,2.06-3.68,5.78-3.08,8.27.11.84.68,1.54,1.47,1.84.94.3,2.16-.14,3.33-1.2h0c2.3-2.07,3.68-5.78,3.08-8.28-.12-.83-.67-1.54-1.46-1.84-.2-.06-.41-.09-.62-.09h0Z" style="fill: #0a4bdd; stroke-width: 0px;"/>
      <g style="opacity: .4;">
        <path d="M259,63.95h-.17l-1.58-.24c-.28-.04-.53-.2-.69-.44-.14-.24-.18-.53-.1-.8l.87-2.94c.03-.2-.04-.39-.19-.53-.17-.16-.33-.33-.48-.51,0-.06-.15-.14-.24-.06l-2,1.5c-.22.18-.53.24-.8.15-.27-.1-.47-.34-.52-.62l-.54-2.24c-.11-.52.04-1.06.39-1.45l1.95-2.05c.18-.23.29-.5.32-.79.02-.53.08-1.06.17-1.58.02-.14-.06-.27-.19-.33l-1.26-.44c-.26-.09-.47-.28-.59-.53-.11-.26-.11-.55,0-.81l1.21-3.28c.21-.5.69-.84,1.23-.87h1.51c.23-.03.43-.15.56-.34.31-.53.66-1,1-1.55.16-.23.24-.51.22-.79l-.29-2.22c-.04-.52.15-1.04.52-1.41l2.23-2c.21-.19.5-.28.78-.22.28.08.5.29.59.56l.65,1.72c.08.08.12.07.16.05.32-.16.66-.29,1-.4.24-.09.45-.26.58-.49l1.29-2.9c.23-.5.77-.8,1.32-.73l1.59.25c.28.04.53.2.68.44.15.24.19.53.11.8l-.87,2.94c-.03.19.04.39.18.52.17.16.34.34.49.52.05.08.15.11.23.07,0,0,0,0,0,0l2-1.51c.22-.18.52-.24.79-.15.27.11.47.34.53.63l.54,2.24c.1.52-.04,1.05-.39,1.45l-1.95,2.05c-.18.22-.3.49-.32.78-.03.53-.09,1.06-.17,1.58-.02.14.06.27.19.33l1.25.44c.26.09.48.29.6.54.11.26.11.55,0,.81l-1.21,3.27c-.2.51-.68.85-1.23.88h-1.52c-.22.03-.42.15-.55.33-.32.54-.66,1.06-1,1.55-.15.24-.22.51-.21.79l.28,2.23c.05.52-.14,1.04-.52,1.4l-2.22,2c-.21.2-.5.29-.78.22-.28-.07-.51-.28-.6-.56l-.64-1.72c-.09-.07-.12-.07-.16,0-.32.16-.66.29-1,.41-.25.09-.45.26-.58.49l-1.29,2.9c-.23.42-.69.68-1.17.67ZM256.5,57.5c.33,0,.64.16.84.42.12.15.25.29.39.42.39.36.56.9.44,1.42l-.87,2.93.08.14,1.59.24c.16.01.31-.07.39-.21l1.29-2.91c.23-.46.62-.82,1.11-1,.3-.1.59-.22.88-.36.26-.12.56-.12.82,0,.25.11.45.31.55.57l.64,1.72,2.2-2c.16-.17.25-.4.24-.64l-.29-2.22c-.04-.5.1-1,.38-1.42.34-.47.67-1,1-1.48.28-.45.76-.73,1.29-.76h1.51c.19-.02.35-.13.43-.3l1.21-3.27s.02-.1,0-.14c-.02-.04-.06-.07-.1-.08l-1.25-.44c-.53-.2-.84-.74-.76-1.3.08-.5.13-1,.16-1.48.04-.5.24-.97.56-1.35l2-2c.14-.18.21-.42.17-.65h0l-.54-2.24-1.94,1.52c-.43.35-1.06.28-1.41-.15-.01-.01-.02-.03-.03-.05-.12-.15-.25-.29-.4-.42-.39-.36-.55-.9-.43-1.42l.87-2.94v-.11h-.1l-1.59-.25c-.16-.01-.32.07-.39.22l-1.29,2.9c-.23.46-.62.82-1.11,1-.31.1-.6.22-.89.36-.5.24-1.1.03-1.33-.47,0-.02-.02-.04-.03-.06l-.65-1.72-2.19,2c-.17.17-.25.41-.24.65l.28,2.22c.04.5-.09,1-.37,1.42-.36.48-.69.97-1,1.48-.29.44-.76.72-1.29.76h-1.51c-.19.02-.35.14-.43.31l-1.25,3.12s-.02.09,0,.13c.02.04.06.07.1.09l1.26.44c.52.2.84.74.76,1.29-.09.49-.14.99-.16,1.49-.04.5-.23.97-.56,1.34l-1.95,2.05c-.14.18-.21.41-.18.64l.54,2.24,1.94-1.52c.18-.13.39-.2.61-.19v.02ZM261.5,55.75c-.29,0-.58-.04-.86-.12-1.08-.39-1.87-1.33-2.05-2.47-.67-2.78.83-6.87,3.34-9.13,1.41-1.27,2.93-1.78,4.18-1.39,1.08.39,1.86,1.34,2.05,2.47.67,2.77-.83,6.87-3.34,9.13h0c-.89.89-2.07,1.43-3.33,1.51h.01ZM265.24,43.38c-1.04.09-2.01.55-2.73,1.3-2.3,2.06-3.68,5.78-3.08,8.27.11.84.68,1.54,1.47,1.84.94.3,2.16-.14,3.33-1.2h0c2.3-2.07,3.68-5.78,3.08-8.28-.12-.83-.67-1.54-1.46-1.84-.2-.06-.41-.09-.62-.09h0Z" style="fill: #fff; stroke-width: 0px;"/>
      </g>
    </g>
  </g>
</svg>