<?xml version="1.0" encoding="UTF-8"?>
<svg id="Capa_2" data-name="Capa 2" xmlns="http://www.w3.org/2000/svg" viewBox="0 0 404.32 244.28">
  <defs>
    <style>
      .cls-1 {
        fill: #0a4bdd;
      }

      .cls-1, .cls-2 {
        stroke-width: 0px;
      }

      .cls-2 {
        fill: #ff9100;
      }
    </style>
  </defs>
  <g id="Capa_1-2" data-name="Capa 1">
    <g>
      <polygon class="cls-2" points="195.35 0 124.22 40.49 132.1 44.95 186.8 76.4 186.8 86.89 124.86 51.81 124.86 60.98 195.08 101.8 195.08 71.62 159.32 51.05 195.35 30.14 195.35 0"/>
      <polygon class="cls-2" points="271.19 98.58 216.35 67.04 216.35 56.55 278.29 91.63 278.29 82.47 208.06 41.64 208.06 71.83 243.82 92.39 207.79 113.3 207.79 143.45 278.93 102.96 271.19 98.58"/>
    </g>
    <g>
      <path class="cls-1" d="M25.35,162.25v25.46c0,3.94-1.11,6.98-3.33,9.11-2.22,2.13-5.21,3.2-8.97,3.2s-7.1-1.12-9.48-3.36c-2.38-2.24-3.57-5.41-3.57-9.53h9.05c0,1.56.32,2.74.96,3.54s1.56,1.2,2.77,1.2c1.1,0,1.95-.35,2.56-1.07.6-.71.91-1.74.91-3.09v-25.46h9.11Z"/>
      <path class="cls-1" d="M59.17,172.98c2.06,2.26,3.09,5.35,3.09,9.29v17.36h-9.05v-16.14c0-1.99-.52-3.53-1.54-4.63-1.03-1.1-2.42-1.65-4.15-1.65s-3.12.55-4.15,1.65c-1.03,1.1-1.54,2.65-1.54,4.63v16.14h-9.11v-39.41h9.11v13.69c.92-1.31,2.18-2.36,3.78-3.14,1.6-.78,3.39-1.17,5.38-1.17,3.41,0,6.14,1.13,8.2,3.38Z"/>
      <path class="cls-1" d="M74.27,198.19c-2.33-1.24-4.15-3.02-5.49-5.33-1.33-2.31-2-5.01-2-8.09s.67-5.74,2.02-8.07c1.35-2.33,3.2-4.11,5.54-5.35,2.34-1.24,4.97-1.86,7.88-1.86s5.54.62,7.88,1.86c2.34,1.24,4.19,3.03,5.54,5.35,1.35,2.33,2.02,5.01,2.02,8.07s-.68,5.74-2.05,8.07c-1.37,2.33-3.23,4.11-5.59,5.35-2.36,1.24-5,1.86-7.91,1.86s-5.53-.62-7.86-1.86ZM86.57,190.26c1.23-1.28,1.84-3.11,1.84-5.49s-.59-4.21-1.78-5.49c-1.19-1.28-2.65-1.92-4.39-1.92s-3.25.63-4.42,1.89c-1.17,1.26-1.76,3.1-1.76,5.51s.58,4.21,1.73,5.49c1.15,1.28,2.6,1.92,4.34,1.92s3.22-.64,4.45-1.92Z"/>
      <path class="cls-1" d="M115.62,171.01c1.6-.94,3.37-1.41,5.33-1.41v9.64h-2.5c-2.27,0-3.98.49-5.11,1.46s-1.7,2.69-1.7,5.14v13.79h-9.11v-29.72h9.11v4.95c1.07-1.63,2.4-2.92,3.99-3.86Z"/>
      <path class="cls-1" d="M172.04,172.95c2.18,2.24,3.28,5.34,3.28,9.32v17.36h-9.05v-16.14c0-1.92-.51-3.4-1.52-4.45-1.01-1.05-2.41-1.57-4.18-1.57s-3.17.52-4.18,1.57c-1.01,1.05-1.52,2.53-1.52,4.45v16.14h-9.05v-16.14c0-1.92-.51-3.4-1.52-4.45-1.01-1.05-2.41-1.57-4.18-1.57s-3.17.52-4.18,1.57c-1.01,1.05-1.52,2.53-1.52,4.45v16.14h-9.11v-29.72h9.11v3.73c.92-1.24,2.13-2.23,3.62-2.96,1.49-.73,3.18-1.09,5.06-1.09,2.24,0,4.23.48,5.99,1.44,1.76.96,3.13,2.33,4.13,4.1,1.03-1.63,2.43-2.96,4.21-3.99,1.77-1.03,3.71-1.54,5.81-1.54,3.69,0,6.63,1.12,8.81,3.36Z"/>
      <path class="cls-1" d="M181.63,176.68c1.15-2.31,2.72-4.08,4.71-5.33,1.99-1.24,4.21-1.86,6.66-1.86,2.09,0,3.93.43,5.51,1.28,1.58.85,2.8,1.97,3.65,3.36v-4.21h9.11v29.72h-9.11v-4.21c-.89,1.38-2.12,2.5-3.7,3.35-1.58.85-3.42,1.28-5.51,1.28-2.42,0-4.62-.63-6.6-1.89-1.99-1.26-3.56-3.05-4.71-5.38-1.15-2.33-1.73-5.01-1.73-8.07s.58-5.73,1.73-8.04ZM200.27,179.39c-1.26-1.31-2.8-1.97-4.61-1.97s-3.35.65-4.61,1.94c-1.26,1.3-1.89,3.08-1.89,5.35s.63,4.07,1.89,5.41c1.26,1.33,2.8,2,4.61,2s3.35-.66,4.61-1.97c1.26-1.31,1.89-3.11,1.89-5.38s-.63-4.07-1.89-5.38Z"/>
      <path class="cls-1" d="M244.31,172.98c2.08,2.26,3.12,5.35,3.12,9.29v17.36h-9.05v-16.14c0-1.99-.52-3.53-1.54-4.63-1.03-1.1-2.42-1.65-4.15-1.65s-3.12.55-4.15,1.65c-1.03,1.1-1.54,2.65-1.54,4.63v16.14h-9.11v-29.72h9.11v3.94c.92-1.31,2.17-2.35,3.73-3.12,1.56-.76,3.32-1.15,5.27-1.15,3.48,0,6.26,1.13,8.33,3.38Z"/>
      <path class="cls-1" d="M298.5,199.63h-9.11l-15.23-23.06v23.06h-9.11v-37.39h9.11l15.23,23.17v-23.17h9.11v37.39Z"/>
      <path class="cls-1" d="M305.77,165.41c-1.01-.94-1.52-2.1-1.52-3.49s.51-2.6,1.52-3.54c1.01-.94,2.32-1.41,3.91-1.41s2.85.47,3.86,1.41c1.01.94,1.52,2.12,1.52,3.54s-.51,2.55-1.52,3.49c-1.01.94-2.3,1.41-3.86,1.41s-2.9-.47-3.91-1.41ZM314.21,169.91v29.72h-9.11v-29.72h9.11Z"/>
      <path class="cls-1" d="M348.67,186.96h-20.61c.14,1.85.74,3.26,1.78,4.23,1.05.98,2.33,1.46,3.86,1.46,2.27,0,3.85-.96,4.74-2.88h9.69c-.5,1.95-1.39,3.71-2.69,5.27-1.3,1.56-2.92,2.79-4.87,3.67-1.95.89-4.14,1.33-6.55,1.33-2.91,0-5.5-.62-7.78-1.86-2.27-1.24-4.05-3.02-5.33-5.33-1.28-2.31-1.92-5.01-1.92-8.09s.63-5.79,1.89-8.1c1.26-2.31,3.03-4.08,5.3-5.33,2.27-1.24,4.88-1.86,7.83-1.86s5.43.6,7.67,1.81c2.24,1.21,3.98,2.93,5.25,5.17,1.26,2.24,1.89,4.85,1.89,7.83,0,.85-.05,1.74-.16,2.66ZM339.51,181.9c0-1.56-.53-2.8-1.6-3.73-1.07-.92-2.4-1.38-3.99-1.38s-2.81.44-3.86,1.33c-1.05.89-1.7,2.15-1.94,3.78h11.4Z"/>
      <path class="cls-1" d="M370.18,191.91v7.72h-4.63c-3.3,0-5.88-.81-7.72-2.42-1.85-1.62-2.77-4.25-2.77-7.91v-11.82h-3.62v-7.56h3.62v-7.24h9.11v7.24h5.96v7.56h-5.96v11.93c0,.89.21,1.53.64,1.92s1.14.58,2.13.58h3.25Z"/>
      <path class="cls-1" d="M380.91,198.19c-2.33-1.24-4.15-3.02-5.49-5.33-1.33-2.31-2-5.01-2-8.09s.67-5.74,2.02-8.07,3.2-4.11,5.54-5.35c2.34-1.24,4.97-1.86,7.88-1.86s5.54.62,7.88,1.86c2.34,1.24,4.19,3.03,5.54,5.35,1.35,2.33,2.02,5.01,2.02,8.07s-.68,5.74-2.05,8.07c-1.37,2.33-3.23,4.11-5.59,5.35s-5,1.86-7.91,1.86-5.53-.62-7.86-1.86ZM393.22,190.26c1.22-1.28,1.84-3.11,1.84-5.49s-.59-4.21-1.78-5.49-2.65-1.92-4.39-1.92-3.25.63-4.42,1.89c-1.17,1.26-1.76,3.1-1.76,5.51s.58,4.21,1.73,5.49,2.6,1.92,4.34,1.92,3.22-.64,4.45-1.92Z"/>
    </g>
    <g>
      <path class="cls-1" d="M73.71,225.58c.97-.68,2.15-1.01,3.54-1.01,1.22,0,2.32.27,3.27.82s1.71,1.33,2.25,2.34.81,2.2.81,3.55-.27,2.54-.81,3.56c-.54,1.02-1.29,1.81-2.25,2.37s-2.05.83-3.27.83c-1.37,0-2.54-.34-3.52-1.03-.98-.68-1.66-1.55-2.04-2.6v9.62h-1.09v-19.31h1.09v3.46c.37-1.06,1.04-1.93,2.02-2.61ZM81.79,228.19c-.45-.87-1.08-1.53-1.9-1.99s-1.75-.69-2.81-.69-1.93.24-2.75.71c-.82.47-1.47,1.15-1.93,2.03s-.7,1.89-.7,3.03.23,2.18.7,3.06,1.11,1.55,1.93,2.03c.82.48,1.74.71,2.75.71s2-.23,2.81-.7c.81-.47,1.45-1.14,1.9-2.01.45-.87.68-1.9.68-3.09s-.23-2.22-.68-3.09Z"/>
      <path class="cls-1" d="M89.67,225.23c.82-.51,1.87-.76,3.14-.76v1.14h-.36c-1.29,0-2.36.37-3.21,1.1-.85.73-1.28,1.93-1.28,3.59v7.56h-1.09v-13.12h1.09v2.71c.32-.97.89-1.7,1.72-2.21Z"/>
      <path class="cls-1" d="M97.79,237.23c-.98-.55-1.75-1.33-2.31-2.36-.56-1.02-.83-2.22-.83-3.59s.28-2.54.85-3.56,1.34-1.8,2.33-2.34,2.1-.81,3.32-.81,2.33.27,3.31.81c.98.54,1.75,1.32,2.31,2.33.56,1.02.83,2.21.83,3.58s-.28,2.57-.85,3.59c-.56,1.02-1.34,1.81-2.33,2.36s-2.1.82-3.32.82-2.33-.27-3.31-.82ZM103.77,236.44c.83-.43,1.49-1.08,1.99-1.94.5-.87.75-1.94.75-3.21s-.25-2.32-.75-3.19c-.5-.87-1.16-1.52-1.98-1.95-.82-.43-1.71-.64-2.66-.64s-1.83.21-2.65.64c-.81.43-1.47,1.08-1.97,1.95-.5.87-.75,1.93-.75,3.19s.25,2.34.74,3.21c.49.87,1.14,1.52,1.96,1.94.81.43,1.7.64,2.65.64s1.84-.21,2.67-.64Z"/>
      <path class="cls-1" d="M120.09,225.57c.97.67,1.64,1.53,2.03,2.57v-3.41h1.09v13.53c0,1.21-.27,2.27-.8,3.18-.53.91-1.25,1.61-2.15,2.1-.9.49-1.91.74-3.02.74-1.64,0-3-.39-4.08-1.18-1.08-.79-1.79-1.85-2.13-3.19h1.09c.32,1.05.93,1.88,1.81,2.5.89.62,1.99.93,3.31.93.92,0,1.75-.21,2.49-.62.74-.41,1.33-1,1.75-1.76.43-.77.64-1.66.64-2.69v-3.84c-.39,1.05-1.07,1.91-2.04,2.6-.98.69-2.15,1.03-3.52,1.03-1.22,0-2.32-.28-3.27-.83-.96-.56-1.71-1.34-2.25-2.37-.54-1.02-.81-2.21-.81-3.56s.27-2.54.81-3.55c.54-1.01,1.29-1.8,2.25-2.34.96-.55,2.05-.82,3.27-.82,1.39,0,2.56.33,3.53,1ZM121.41,228.25c-.48-.88-1.12-1.55-1.95-2.03-.82-.48-1.74-.71-2.75-.71s-2,.23-2.8.69c-.81.46-1.43,1.12-1.88,1.99-.45.87-.68,1.9-.68,3.09s.23,2.22.68,3.09c.45.87,1.08,1.54,1.9,2.01.81.47,1.74.7,2.79.7s1.94-.24,2.77-.71c.83-.47,1.48-1.15,1.94-2.03s.7-1.9.7-3.06-.24-2.16-.71-3.03Z"/>
      <path class="cls-1" d="M129.97,225.23c.82-.51,1.87-.76,3.14-.76v1.14h-.36c-1.29,0-2.36.37-3.21,1.1-.85.73-1.28,1.93-1.28,3.59v7.56h-1.09v-13.12h1.09v2.71c.32-.97.89-1.7,1.72-2.21Z"/>
      <path class="cls-1" d="M135.76,227.73c.54-1.01,1.29-1.8,2.25-2.34.96-.55,2.05-.82,3.27-.82,1.39,0,2.56.34,3.53,1.01.97.68,1.64,1.54,2.03,2.59v-3.43h1.09v13.12h-1.09v-3.46c-.39,1.06-1.07,1.94-2.04,2.62-.98.69-2.15,1.03-3.52,1.03-1.22,0-2.32-.28-3.27-.83-.96-.56-1.71-1.34-2.25-2.37-.54-1.02-.81-2.21-.81-3.56s.27-2.54.81-3.55ZM146.13,228.25c-.48-.88-1.12-1.55-1.95-2.03-.82-.48-1.74-.71-2.75-.71s-2,.23-2.8.69c-.81.46-1.43,1.12-1.88,1.99-.45.87-.68,1.9-.68,3.09s.23,2.22.68,3.09c.45.87,1.08,1.54,1.9,2.01.81.47,1.74.7,2.79.7s1.94-.24,2.77-.71c.83-.47,1.48-1.15,1.94-2.03s.7-1.9.7-3.06-.24-2.16-.71-3.03Z"/>
      <path class="cls-1" d="M171.08,225.91c.95.96,1.43,2.38,1.43,4.26v7.68h-1.06v-7.61c0-1.56-.37-2.76-1.12-3.59-.75-.83-1.78-1.24-3.08-1.24s-2.44.47-3.26,1.4c-.82.93-1.23,2.29-1.23,4.06v6.98h-1.06v-7.61c0-1.56-.37-2.76-1.12-3.59-.75-.83-1.78-1.24-3.08-1.24s-2.44.47-3.26,1.4-1.23,2.29-1.23,4.06v6.98h-1.09v-13.12h1.09v2.85c.37-1.03.97-1.81,1.8-2.33.83-.52,1.78-.79,2.86-.79,1.19,0,2.22.31,3.08.93.86.62,1.45,1.54,1.78,2.74.31-1.21.9-2.12,1.79-2.74.89-.62,1.92-.93,3.12-.93,1.5,0,2.72.48,3.67,1.44Z"/>
      <path class="cls-1" d="M176.5,227.73c.54-1.01,1.29-1.8,2.25-2.34.96-.55,2.05-.82,3.27-.82,1.39,0,2.56.34,3.53,1.01.97.68,1.64,1.54,2.03,2.59v-3.43h1.09v13.12h-1.09v-3.46c-.39,1.06-1.07,1.94-2.04,2.62-.98.69-2.15,1.03-3.52,1.03-1.22,0-2.32-.28-3.27-.83-.96-.56-1.71-1.34-2.25-2.37-.54-1.02-.81-2.21-.81-3.56s.27-2.54.81-3.55ZM186.87,228.25c-.48-.88-1.12-1.55-1.95-2.03-.82-.48-1.74-.71-2.75-.71s-2,.23-2.8.69c-.81.46-1.43,1.12-1.88,1.99-.45.87-.68,1.9-.68,3.09s.23,2.22.68,3.09c.45.87,1.08,1.54,1.9,2.01.81.47,1.74.7,2.79.7s1.94-.24,2.77-.71c.83-.47,1.48-1.15,1.94-2.03s.7-1.9.7-3.06-.24-2.16-.71-3.03Z"/>
      <path class="cls-1" d="M192.76,227.73c.54-1.01,1.29-1.8,2.25-2.34.96-.55,2.05-.82,3.27-.82,1.34,0,2.5.33,3.48,1,.98.67,1.68,1.53,2.08,2.6v-8.19h1.09v17.88h-1.09v-3.48c-.39,1.08-1.06,1.96-2.03,2.65-.97.69-2.14,1.03-3.53,1.03-1.22,0-2.32-.28-3.27-.83-.96-.56-1.71-1.34-2.25-2.37-.54-1.02-.81-2.21-.81-3.56s.27-2.54.81-3.55ZM203.13,228.25c-.48-.88-1.12-1.55-1.95-2.03-.82-.48-1.74-.71-2.75-.71s-2,.23-2.8.69c-.81.46-1.43,1.12-1.88,1.99-.45.87-.68,1.9-.68,3.09s.23,2.22.68,3.09c.45.87,1.08,1.54,1.9,2.01.81.47,1.74.7,2.79.7s1.94-.24,2.77-.71c.83-.47,1.48-1.15,1.94-2.03s.7-1.9.7-3.06-.24-2.16-.71-3.03Z"/>
      <path class="cls-1" d="M211.36,237.23c-.98-.55-1.75-1.33-2.31-2.36-.56-1.02-.83-2.22-.83-3.59s.28-2.54.85-3.56,1.34-1.8,2.33-2.34,2.1-.81,3.32-.81,2.33.27,3.31.81c.98.54,1.75,1.32,2.31,2.33.56,1.02.83,2.21.83,3.58s-.28,2.57-.85,3.59c-.56,1.02-1.34,1.81-2.33,2.36s-2.1.82-3.32.82-2.33-.27-3.31-.82ZM217.34,236.44c.83-.43,1.49-1.08,1.99-1.94.5-.87.75-1.94.75-3.21s-.25-2.32-.75-3.19c-.5-.87-1.16-1.52-1.98-1.95-.82-.43-1.71-.64-2.66-.64s-1.83.21-2.65.64c-.81.43-1.47,1.08-1.97,1.95-.5.87-.75,1.93-.75,3.19s.25,2.34.74,3.21c.49.87,1.14,1.52,1.96,1.94.81.43,1.7.64,2.65.64s1.84-.21,2.67-.64Z"/>
      <path class="cls-1" d="M227.28,225.23c.82-.51,1.87-.76,3.14-.76v1.14h-.36c-1.29,0-2.36.37-3.21,1.1-.85.73-1.28,1.93-1.28,3.59v7.56h-1.09v-13.12h1.09v2.71c.32-.97.89-1.7,1.72-2.21Z"/>
      <path class="cls-1" d="M244.75,225.7h-3.41v12.15h-1.09v-12.15h-1.98v-.97h1.98v-.92c0-1.37.35-2.39,1.04-3.06.69-.67,1.83-1,3.41-1v.97c-1.26,0-2.13.24-2.62.73-.49.48-.74,1.27-.74,2.37v.92h3.41v.97Z"/>
      <path class="cls-1" d="M258.62,224.73v13.12h-1.09v-2.85c-.37,1-.99,1.76-1.85,2.28s-1.85.79-2.96.79c-1.56,0-2.84-.48-3.83-1.44-.99-.96-1.49-2.38-1.49-4.26v-7.64h1.06v7.56c0,1.56.39,2.76,1.18,3.59.79.83,1.86,1.25,3.21,1.25s2.55-.45,3.4-1.35,1.27-2.24,1.27-4.01v-7.03h1.09Z"/>
      <path class="cls-1" d="M263.67,219.97v17.88h-1.09v-17.88h1.09Z"/>
      <path class="cls-1" d="M268.74,219.97v17.88h-1.09v-17.88h1.09Z"/>
      <path class="cls-1" d="M280.33,237.08c-.93-.64-1.45-1.56-1.56-2.75h1.11c.08.85.47,1.53,1.17,2.03s1.66.75,2.86.75c1,0,1.79-.25,2.38-.76.59-.51.88-1.13.88-1.87,0-.52-.16-.94-.47-1.27-.31-.33-.7-.58-1.17-.76-.47-.18-1.1-.37-1.91-.58-.97-.26-1.75-.51-2.34-.76-.6-.25-1.1-.62-1.52-1.12-.42-.5-.63-1.17-.63-2,0-.61.19-1.18.56-1.7s.89-.94,1.55-1.24,1.41-.46,2.25-.46c1.37,0,2.48.34,3.32,1.03.85.69,1.3,1.63,1.37,2.84h-1.09c-.05-.87-.39-1.58-1.01-2.13-.63-.55-1.5-.82-2.61-.82-.93,0-1.71.24-2.32.72s-.92,1.07-.92,1.76c0,.61.17,1.11.52,1.49.35.38.77.67,1.28.87.51.2,1.18.42,2.02.64.92.24,1.66.48,2.21.71.56.23,1.03.57,1.41,1.01.39.44.58,1.04.58,1.78,0,.68-.19,1.29-.56,1.84-.37.55-.89.98-1.55,1.28s-1.4.46-2.22.46c-1.47,0-2.66-.32-3.59-.97Z"/>
      <path class="cls-1" d="M293.17,225.68v8.67c0,.97.18,1.63.53,1.99.35.36.98.54,1.88.54h1.47v.97h-1.64c-1.14,0-1.99-.27-2.52-.81-.54-.54-.81-1.44-.81-2.69v-8.67h-1.98v-.94h1.98v-3.33h1.09v3.33h3.89v.94h-3.89Z"/>
      <path class="cls-1" d="M300.07,227.73c.54-1.01,1.29-1.8,2.25-2.34.96-.55,2.05-.82,3.27-.82,1.39,0,2.56.34,3.53,1.01.97.68,1.64,1.54,2.03,2.59v-3.43h1.09v13.12h-1.09v-3.46c-.39,1.06-1.07,1.94-2.04,2.62-.98.69-2.15,1.03-3.52,1.03-1.22,0-2.32-.28-3.27-.83-.96-.56-1.71-1.34-2.25-2.37-.54-1.02-.81-2.21-.81-3.56s.27-2.54.81-3.55ZM310.44,228.25c-.48-.88-1.12-1.55-1.95-2.03-.82-.48-1.74-.71-2.75-.71s-2,.23-2.8.69c-.81.46-1.43,1.12-1.88,1.99-.45.87-.68,1.9-.68,3.09s.23,2.22.68,3.09c.45.87,1.08,1.54,1.9,2.01.81.47,1.74.7,2.79.7s1.94-.24,2.77-.71c.83-.47,1.48-1.15,1.94-2.03s.7-1.9.7-3.06-.24-2.16-.71-3.03Z"/>
      <path class="cls-1" d="M316.33,227.71c.54-1.01,1.29-1.79,2.25-2.33.96-.54,2.06-.81,3.3-.81,1.64,0,2.99.41,4.05,1.23,1.06.82,1.71,1.92,1.97,3.31h-1.14c-.21-1.13-.75-2.01-1.63-2.66-.88-.64-1.96-.97-3.25-.97-.97,0-1.84.21-2.63.64-.79.43-1.42,1.08-1.9,1.96-.48.88-.71,1.95-.71,3.2s.24,2.34.71,3.21c.47.87,1.11,1.52,1.9,1.96.79.43,1.67.65,2.63.65,1.29,0,2.37-.32,3.25-.97.88-.64,1.42-1.53,1.63-2.66h1.14c-.26,1.37-.92,2.47-1.98,3.31-1.06.84-2.41,1.26-4.04,1.26-1.24,0-2.34-.27-3.3-.82-.96-.55-1.71-1.33-2.25-2.36-.54-1.02-.81-2.22-.81-3.59s.27-2.56.81-3.58Z"/>
      <path class="cls-1" d="M338.02,237.86l-5.73-6.02v6.02h-1.09v-17.88h1.09v10.71l5.63-5.94h1.52l-6.36,6.52,6.43,6.6h-1.5Z"/>
    </g>
  </g>
</svg>